<svg xmlns="http://www.w3.org/2000/svg" xmlns:xlink="http://www.w3.org/1999/xlink" preserveAspectRatio="xMidYMid" width="307" height="374.219" viewBox="0 0 307 374.219">
  <defs>
    <style>
      .cls-1 {
        fill: #fff;
        fill-rule: evenodd;
      }
    </style>
  </defs>
  <g>
    <path d="M305.860,245.668 C305.262,246.732 304.518,247.583 303.627,248.222 C302.736,248.860 301.337,249.549 299.429,250.288 C298.705,250.562 298.271,250.828 298.128,251.083 C297.956,251.388 297.869,251.992 297.865,252.896 L297.427,252.929 L297.460,249.406 L297.871,249.273 C299.809,248.663 301.454,247.916 302.805,247.032 C304.155,246.147 305.123,245.184 305.709,244.141 C306.459,242.807 306.666,241.516 306.330,240.269 C305.995,239.021 305.175,238.030 303.869,237.297 C302.237,236.380 300.572,236.241 298.875,236.879 C297.177,237.517 295.784,238.804 294.696,240.741 C293.740,242.444 293.346,244.428 293.516,246.694 C293.685,248.959 294.408,251.439 295.685,254.135 C296.527,254.431 297.207,254.724 297.725,255.015 C299.009,255.737 300.115,256.726 301.042,257.984 C301.968,259.242 302.269,260.162 301.942,260.744 C301.619,261.319 300.968,261.331 299.989,260.781 C299.357,260.426 298.727,259.849 298.099,259.048 C297.471,258.247 296.747,257.098 295.926,255.601 C295.506,255.468 294.773,255.261 293.726,254.981 C291.917,254.497 290.416,253.995 289.224,253.474 C289.348,253.768 289.430,253.963 289.469,254.060 L289.937,255.247 L293.296,263.672 C294.089,265.667 294.604,267.074 294.839,267.892 C295.075,268.711 295.192,269.512 295.191,270.295 C295.188,271.330 294.968,272.237 294.530,273.018 L292.203,270.605 L292.488,270.247 L292.660,270.414 C292.810,270.563 292.945,270.671 293.065,270.739 C293.434,270.946 293.784,270.755 294.115,270.167 C294.549,269.393 294.569,268.436 294.174,267.295 C293.779,266.153 293.040,265.026 291.957,263.914 C291.335,263.275 290.222,262.291 288.617,260.960 C287.013,259.629 285.983,258.837 285.529,258.582 C285.167,258.378 284.895,258.440 284.711,258.766 C284.584,258.993 284.498,259.379 284.453,259.923 L284.016,259.930 C284.064,259.546 284.158,258.880 284.298,257.932 C284.406,257.208 284.484,256.562 284.534,255.992 C285.172,256.351 286.271,257.166 287.829,258.438 C289.387,259.710 290.874,261.005 292.290,262.323 L292.026,261.671 C291.804,261.135 291.472,260.314 291.030,259.207 L289.449,255.267 L287.860,251.266 L287.694,250.865 L288.035,250.706 C288.378,251.226 288.787,251.619 289.262,251.886 C290.050,252.328 291.363,252.823 293.202,253.371 L294.824,253.848 C294.843,253.849 294.931,253.875 295.089,253.926 C293.774,250.966 293.021,248.243 292.831,245.756 C292.641,243.269 293.029,241.167 293.993,239.450 C294.623,238.329 295.465,237.404 296.518,236.675 C297.572,235.946 298.678,235.529 299.838,235.425 C301.153,235.295 302.452,235.591 303.736,236.312 C305.404,237.249 306.433,238.581 306.826,240.309 C307.218,242.036 306.896,243.823 305.860,245.668 ZM298.307,258.191 C298.928,258.881 299.497,259.371 300.015,259.662 C300.562,259.969 300.940,259.934 301.152,259.558 C301.311,259.274 301.147,258.865 300.659,258.329 C300.171,257.794 299.505,257.289 298.660,256.815 C298.114,256.508 297.437,256.202 296.628,255.897 C297.127,256.737 297.686,257.502 298.307,258.191 ZM287.353,266.353 C287.771,266.918 288.098,267.273 288.334,267.418 C288.563,267.559 288.747,267.500 288.885,267.242 C288.946,267.127 289.011,266.903 289.078,266.570 L289.447,266.656 L289.409,266.857 C289.166,268.019 289.009,269.011 288.939,269.832 C288.365,269.525 287.592,268.701 286.621,267.360 L285.205,265.399 C284.118,263.894 283.409,263.054 283.079,262.877 C282.771,262.712 282.543,262.766 282.398,263.039 C282.025,263.735 282.259,265.046 283.098,266.971 C283.937,268.896 285.050,270.668 286.436,272.286 L286.706,272.610 C286.526,273.050 286.400,273.605 286.327,274.277 C285.634,273.260 284.608,271.926 283.247,270.276 C281.887,268.626 281.068,267.717 280.788,267.549 C280.570,267.423 280.393,267.486 280.259,267.737 C280.155,267.931 280.075,268.252 280.019,268.702 L279.654,268.687 C279.661,268.017 279.758,266.957 279.943,265.505 L279.991,265.157 C281.061,265.969 282.118,266.996 283.161,268.237 C282.487,266.686 282.039,265.318 281.819,264.134 C281.598,262.950 281.632,262.089 281.920,261.551 C282.173,261.078 282.547,260.973 283.042,261.238 C283.638,261.556 284.625,262.652 286.005,264.525 L287.353,266.353 ZM283.824,274.740 C284.047,274.857 284.210,274.819 284.312,274.624 C284.369,274.516 284.399,274.224 284.401,273.747 L284.810,273.782 C284.770,275.048 284.839,276.238 285.017,277.352 C284.872,277.312 284.746,277.265 284.638,277.208 C284.083,276.916 283.288,276.182 282.252,275.004 L282.418,275.422 C283.381,278.069 283.679,279.742 283.312,280.441 C283.233,280.593 283.099,280.734 282.911,280.865 L282.024,279.902 C282.225,279.659 282.381,279.433 282.490,279.224 C282.929,278.388 282.757,277.158 281.974,275.533 C281.596,274.765 281.131,274.031 280.579,273.332 C280.026,272.633 279.137,271.658 277.909,270.407 L277.604,270.096 C277.749,269.574 277.861,269.063 277.940,268.562 L278.202,268.852 L280.232,271.131 C282.194,273.310 283.392,274.513 283.824,274.740 ZM279.406,278.737 C280.455,281.555 280.567,284.263 279.743,286.859 L280.342,287.538 L281.991,289.375 C282.465,289.912 282.809,290.240 283.022,290.359 C283.326,290.533 283.562,290.458 283.729,290.132 C283.826,289.944 283.887,289.710 283.912,289.430 L284.305,289.467 L284.280,289.674 C284.115,291.081 284.036,292.257 284.043,293.204 C283.580,292.929 282.695,292.044 281.388,290.547 L279.782,288.705 L279.163,287.988 C278.765,288.333 278.290,288.385 277.736,288.146 C277.993,287.894 278.234,287.579 278.456,287.199 L278.300,287.023 L275.460,283.790 C274.138,282.286 273.362,281.475 273.130,281.356 C272.928,281.251 272.776,281.297 272.675,281.492 C272.571,281.695 272.541,282.100 272.585,282.709 C272.588,282.738 272.591,282.785 272.594,282.851 L272.228,282.923 C272.087,281.862 272.179,280.528 272.503,278.919 L272.817,279.190 C273.566,279.868 274.456,280.807 275.487,282.005 C275.799,282.377 276.093,282.720 276.370,283.037 L278.914,285.883 L279.097,286.115 C279.499,285.333 279.725,284.383 279.774,283.264 C279.823,282.146 279.690,281.075 279.375,280.052 C278.764,278.127 277.789,276.820 276.450,276.131 C275.835,275.815 275.412,275.881 275.181,276.329 C274.954,276.771 274.974,277.479 275.241,278.454 C275.508,279.429 275.946,280.393 276.553,281.346 C277.133,282.248 277.854,283.114 278.718,283.943 C278.387,283.928 278.070,283.843 277.766,283.686 C277.165,283.377 276.600,282.759 276.070,281.832 C275.540,280.905 275.126,279.816 274.828,278.564 C274.394,276.702 274.364,275.410 274.736,274.686 C275.019,274.136 275.504,274.038 276.192,274.392 C276.792,274.701 277.384,275.250 277.966,276.040 C278.549,276.829 279.028,277.728 279.406,278.737 ZM276.508,290.278 C276.816,292.019 276.722,293.383 276.225,294.372 C275.936,294.946 275.581,295.128 275.159,294.916 C274.883,294.777 274.620,294.471 274.370,293.999 C274.120,293.527 273.943,293.006 273.839,292.434 C273.749,291.906 273.733,291.286 273.791,290.572 C273.849,289.859 273.958,289.343 274.119,289.023 C274.291,288.681 274.599,288.540 275.043,288.599 C274.846,288.883 274.701,289.115 274.610,289.297 C274.244,290.024 274.116,290.800 274.225,291.624 C274.334,292.449 274.632,292.984 275.120,293.229 C275.469,293.404 275.756,293.266 275.983,292.816 C276.389,292.009 276.309,290.935 275.745,289.594 C275.347,288.647 274.779,287.747 274.042,286.894 C273.305,286.040 272.573,285.431 271.846,285.065 C271.098,284.689 270.566,284.813 270.252,285.438 C269.908,286.121 269.927,287.021 270.308,288.138 C270.690,289.254 271.350,290.354 272.290,291.437 C272.036,291.436 271.828,291.396 271.668,291.315 C270.970,290.964 270.410,290.077 269.988,288.653 C269.366,286.573 269.304,285.039 269.802,284.050 C270.229,283.200 270.927,283.018 271.894,283.504 C272.984,284.052 273.962,284.961 274.827,286.229 C275.692,287.498 276.252,288.847 276.508,290.278 ZM273.346,295.285 C273.572,295.396 273.734,295.353 273.831,295.156 C273.885,295.047 273.907,294.754 273.897,294.277 L274.307,294.302 C274.299,295.568 274.399,296.756 274.605,297.865 C274.460,297.829 274.332,297.785 274.222,297.731 C273.660,297.454 272.847,296.739 271.781,295.588 L271.958,296.002 C272.988,298.624 273.329,300.289 272.980,300.997 C272.904,301.150 272.774,301.295 272.589,301.430 L271.677,300.491 C271.873,300.242 272.022,300.012 272.127,299.801 C272.544,298.954 272.341,297.729 271.517,296.125 C271.119,295.366 270.636,294.644 270.066,293.960 C269.496,293.275 268.582,292.323 267.323,291.104 L267.010,290.800 C267.142,290.275 267.241,289.761 267.307,289.259 L267.576,289.541 L269.663,291.768 C271.681,293.896 272.908,295.069 273.346,295.285 ZM270.610,302.258 C270.947,303.993 270.875,305.359 270.394,306.355 C270.115,306.934 269.762,307.121 269.337,306.916 C269.059,306.782 268.790,306.481 268.533,306.013 C268.275,305.545 268.089,305.026 267.976,304.457 C267.878,303.930 267.852,303.310 267.898,302.596 C267.945,301.882 268.046,301.364 268.201,301.041 C268.367,300.697 268.673,300.550 269.118,300.602 C268.925,300.889 268.785,301.124 268.696,301.307 C268.343,302.040 268.227,302.818 268.349,303.641 C268.472,304.463 268.779,304.993 269.270,305.230 C269.622,305.400 269.907,305.258 270.127,304.803 C270.519,303.990 270.422,302.917 269.836,301.586 C269.422,300.645 268.840,299.755 268.089,298.913 C267.339,298.072 266.597,297.475 265.864,297.121 C265.109,296.757 264.580,296.890 264.275,297.520 C263.943,298.209 263.977,299.108 264.376,300.218 C264.776,301.328 265.454,302.417 266.412,303.485 C266.157,303.488 265.949,303.451 265.788,303.373 C265.084,303.034 264.510,302.155 264.064,300.739 C263.409,298.669 263.322,297.136 263.803,296.140 C264.217,295.282 264.911,295.089 265.886,295.559 C266.985,296.090 267.978,296.982 268.863,298.236 C269.749,299.491 270.331,300.831 270.610,302.258 ZM265.935,305.856 C267.088,308.634 267.300,311.335 266.574,313.960 L267.197,314.616 L268.913,316.391 C269.407,316.910 269.763,317.224 269.981,317.336 C270.290,317.499 270.523,317.414 270.679,317.083 C270.768,316.891 270.820,316.655 270.835,316.374 L271.229,316.397 L271.212,316.605 C271.099,318.017 271.064,319.195 271.106,320.141 C270.634,319.884 269.716,319.031 268.354,317.585 L266.681,315.803 L266.035,315.110 C265.651,315.469 265.178,315.540 264.616,315.321 C264.864,315.060 265.092,314.735 265.301,314.348 L265.138,314.177 L262.180,311.053 C260.803,309.599 259.997,308.817 259.761,308.706 C259.555,308.610 259.405,308.661 259.312,308.860 C259.215,309.066 259.200,309.472 259.266,310.079 C259.271,310.108 259.275,310.155 259.281,310.220 L258.917,310.306 C258.737,309.251 258.779,307.914 259.044,306.295 L259.367,306.554 C260.141,307.204 261.065,308.109 262.140,309.268 C262.466,309.627 262.773,309.960 263.061,310.266 L265.709,313.016 L265.900,313.240 C266.273,312.444 266.463,311.487 266.471,310.367 C266.479,309.247 266.306,308.182 265.953,307.172 C265.271,305.271 264.248,304.001 262.884,303.362 C262.258,303.069 261.838,303.150 261.624,303.607 C261.413,304.057 261.459,304.764 261.763,305.728 C262.066,306.692 262.539,307.640 263.181,308.570 C263.794,309.450 264.547,310.288 265.441,311.084 C265.110,311.082 264.789,311.008 264.480,310.863 C263.868,310.576 263.280,309.980 262.716,309.073 C262.153,308.166 261.698,307.093 261.354,305.853 C260.851,304.009 260.773,302.719 261.118,301.982 C261.380,301.422 261.862,301.306 262.562,301.634 C263.173,301.920 263.785,302.447 264.396,303.214 C265.007,303.981 265.520,304.862 265.935,305.856 ZM261.716,322.133 C261.765,322.022 261.815,321.755 261.866,321.333 C261.872,321.300 261.878,321.254 261.886,321.195 L262.274,321.285 C262.115,322.459 262.038,323.549 262.042,324.555 L262.045,324.729 C261.942,324.702 261.871,324.680 261.834,324.664 C261.170,324.373 259.972,323.266 258.237,321.344 L257.970,321.040 L258.099,321.323 C258.958,323.156 259.562,324.764 259.912,326.148 C260.261,327.531 260.309,328.513 260.054,329.095 C259.894,329.460 259.628,329.561 259.255,329.398 C258.868,329.228 257.937,328.239 256.464,326.430 C254.709,324.268 253.691,323.125 253.408,323.001 C253.191,322.906 253.039,322.959 252.951,323.161 C252.853,323.384 252.842,323.744 252.919,324.239 L252.939,324.315 L252.559,324.361 C252.309,323.186 252.325,321.932 252.607,320.598 C253.769,321.293 255.320,322.834 257.260,325.220 L258.328,326.554 C258.698,327.009 258.950,327.265 259.084,327.324 C259.285,327.412 259.422,327.374 259.493,327.210 C259.595,326.979 259.525,326.427 259.286,325.554 C259.046,324.680 258.717,323.788 258.299,322.876 C257.437,320.989 256.203,319.183 254.595,317.457 C254.666,317.071 254.704,316.497 254.709,315.735 C255.810,317.034 257.083,318.415 258.526,319.878 C259.969,321.340 260.851,322.141 261.171,322.281 C261.440,322.399 261.621,322.350 261.716,322.133 ZM255.178,328.044 C256.002,329.230 256.575,330.578 256.897,332.088 C257.071,332.919 257.141,333.775 257.108,334.656 C257.076,335.537 256.948,336.245 256.726,336.778 C256.588,337.108 256.373,337.213 256.080,337.090 C255.967,337.043 255.803,336.918 255.589,336.714 C255.792,336.331 255.949,336.009 256.059,335.746 C256.883,333.770 256.755,331.941 255.677,330.256 C255.248,329.592 254.705,328.956 254.047,328.346 C253.389,327.736 252.797,327.322 252.271,327.102 C251.903,326.949 251.556,326.930 251.230,327.045 C250.904,327.160 250.672,327.383 250.534,327.714 C250.209,328.495 250.475,329.620 251.335,331.090 C252.194,332.560 253.146,333.512 254.190,333.948 C254.423,334.045 254.646,334.065 254.859,334.009 C255.072,333.952 255.215,333.837 255.287,333.665 C255.537,333.064 255.176,332.238 254.203,331.189 C254.369,331.214 254.508,331.250 254.621,331.297 C255.087,331.491 255.454,331.984 255.724,332.776 C255.993,333.567 256.020,334.222 255.804,334.740 C255.660,335.085 255.397,335.320 255.015,335.442 C254.633,335.565 254.239,335.542 253.833,335.373 C252.474,334.806 251.394,333.337 250.593,330.966 C249.891,328.927 249.746,327.416 250.157,326.432 C250.335,326.004 250.637,325.713 251.063,325.560 C251.488,325.407 251.934,325.427 252.399,325.622 C253.428,326.051 254.354,326.858 255.178,328.044 ZM247.194,333.264 C248.327,334.344 249.480,335.307 250.652,336.154 C251.824,337.000 252.809,337.578 253.605,337.889 C254.332,338.173 254.761,338.148 254.892,337.815 C254.954,337.656 254.922,337.368 254.796,336.952 L255.185,336.894 L255.251,337.195 C255.420,337.995 255.589,338.668 255.760,339.215 C255.216,339.737 254.519,339.832 253.670,339.500 C252.556,339.065 251.067,338.056 249.204,336.473 L248.711,336.058 C249.052,336.593 249.357,337.022 249.624,337.345 L251.064,339.060 C252.690,341.005 253.630,342.769 253.886,344.354 L246.767,339.663 C246.856,339.925 247.088,340.674 247.461,341.912 C248.306,344.671 249.442,346.529 250.867,347.487 L251.489,345.895 L251.653,345.475 C251.825,345.035 251.762,344.657 251.467,344.341 L251.059,343.906 C251.035,343.879 250.986,343.825 250.913,343.744 L251.073,343.335 L253.101,345.358 L251.587,349.236 C249.532,347.517 247.983,345.051 246.939,341.840 L246.367,340.083 C246.260,339.753 246.117,339.348 245.937,338.867 L245.552,337.839 C245.543,337.818 245.512,337.718 245.459,337.540 L245.956,337.879 C246.932,338.513 248.043,339.213 249.290,339.979 C251.035,341.036 252.149,341.719 252.631,342.030 C252.442,341.685 252.117,341.253 251.656,340.732 C249.121,337.873 247.633,335.384 247.194,333.264 ZM248.947,356.033 L249.174,356.239 L249.689,354.725 L249.981,355.005 L249.930,355.155 C249.704,355.818 249.657,356.298 249.787,356.596 C249.918,356.894 250.397,357.404 251.227,358.125 C251.180,358.238 251.150,358.313 251.136,358.352 C251.010,358.722 250.932,359.103 250.901,359.497 C250.707,359.336 250.392,359.061 249.957,358.672 L249.243,358.042 L249.017,357.836 L248.462,359.465 L248.166,359.197 L248.721,357.568 L248.556,357.408 C248.298,357.157 247.532,356.453 246.258,355.297 C245.738,354.828 245.025,354.172 244.117,353.330 C243.060,352.342 242.366,351.792 242.035,351.679 C241.704,351.567 241.481,351.680 241.365,352.019 C241.226,352.427 241.274,353.067 241.511,353.938 L241.147,354.021 C240.950,353.438 240.830,352.808 240.785,352.131 C240.741,351.453 240.784,350.922 240.915,350.537 C241.112,349.959 241.438,349.748 241.892,349.903 C242.216,350.013 243.015,350.646 244.289,351.802 L246.618,353.937 C247.938,355.135 248.714,355.833 248.947,356.033 ZM246.132,359.272 L249.166,361.732 C250.661,362.928 251.607,363.587 252.003,363.710 C252.275,363.795 252.450,363.712 252.527,363.464 C252.563,363.347 252.576,363.100 252.565,362.721 L252.554,362.552 L252.928,362.540 C252.952,363.561 253.073,364.617 253.289,365.706 L253.349,365.967 C253.199,365.929 253.089,365.900 253.019,365.878 C252.443,365.700 251.654,365.242 250.651,364.506 C249.649,363.769 247.929,362.384 245.491,360.351 L242.838,358.149 L242.555,357.908 L242.738,358.182 C245.501,362.301 246.684,364.997 246.289,366.272 C246.174,366.646 245.929,366.774 245.556,366.659 C245.284,366.574 244.884,366.297 244.357,365.827 L242.984,364.609 C240.672,362.556 239.302,361.462 238.875,361.330 C238.704,361.277 238.591,361.340 238.535,361.519 C238.470,361.729 238.495,362.115 238.610,362.679 L238.636,362.802 L238.268,362.918 C238.092,362.029 237.974,360.910 237.914,359.563 L237.900,359.239 C239.086,359.700 241.135,361.255 244.046,363.903 C244.497,364.316 244.816,364.551 245.003,364.609 C245.244,364.683 245.392,364.631 245.448,364.452 C245.510,364.250 245.419,363.830 245.173,363.192 C244.928,362.554 244.608,361.909 244.213,361.259 C243.631,360.277 242.907,359.254 242.040,358.189 C241.173,357.124 240.389,356.291 239.689,355.691 C239.788,355.125 239.789,354.572 239.692,354.031 L239.956,354.253 C241.028,355.164 242.069,356.024 243.080,356.831 L246.132,359.272 ZM241.549,365.760 C242.656,366.824 243.481,368.030 244.024,369.378 C244.683,371.018 244.870,372.373 244.586,373.443 C244.421,374.064 244.111,374.315 243.655,374.193 C243.356,374.114 243.035,373.869 242.694,373.458 C242.353,373.048 242.072,372.573 241.853,372.035 C241.657,371.537 241.514,370.933 241.425,370.223 C241.336,369.513 241.337,368.985 241.429,368.639 C241.527,368.269 241.799,368.068 242.246,368.035 C242.111,368.353 242.018,368.610 241.965,368.807 C241.757,369.593 241.790,370.379 242.066,371.163 C242.341,371.948 242.743,372.410 243.270,372.550 C243.647,372.651 243.901,372.457 244.030,371.969 C244.262,371.096 243.964,370.061 243.137,368.865 C242.553,368.019 241.813,367.255 240.917,366.571 C240.021,365.886 239.180,365.440 238.393,365.231 C237.583,365.016 237.088,365.246 236.909,365.923 C236.712,366.662 236.915,367.539 237.517,368.554 C238.119,369.568 238.991,370.509 240.134,371.377 C239.884,371.428 239.673,371.431 239.500,371.385 C238.745,371.185 238.014,370.431 237.309,369.124 C236.275,367.215 235.900,365.726 236.184,364.657 C236.428,363.737 237.073,363.415 238.120,363.693 C239.299,364.006 240.443,364.695 241.549,365.760 Z" class="cls-1"/>
    <path d="M289.606,234.195 L289.050,235.172 C289.037,235.193 289.006,235.250 288.957,235.344 L290.373,237.128 L290.159,237.469 L288.719,235.699 C287.611,237.463 286.361,237.908 284.969,237.034 C284.190,236.544 283.492,235.834 282.876,234.904 C282.259,233.973 281.823,232.976 281.569,231.913 C281.212,230.401 281.252,229.297 281.689,228.601 C281.953,228.181 282.261,228.081 282.612,228.302 C282.764,228.397 282.894,228.541 283.003,228.735 C282.555,228.943 282.253,229.172 282.097,229.420 C281.695,230.061 281.678,230.891 282.046,231.910 C282.302,232.619 282.694,233.327 283.221,234.033 C283.748,234.739 284.274,235.256 284.797,235.585 C285.996,236.339 287.033,236.019 287.908,234.627 L287.714,234.362 C285.836,231.874 284.628,230.265 284.088,229.532 L278.643,222.160 L278.288,221.692 C278.351,221.271 278.454,220.855 278.596,220.444 L278.655,220.236 L278.891,220.572 C280.269,222.601 282.723,225.839 286.253,230.286 L286.473,230.554 L286.423,230.681 C286.283,231.103 286.283,231.473 286.424,231.792 C286.564,232.111 287.031,232.803 287.823,233.868 L288.129,234.276 L288.308,234.014 C288.645,233.476 288.929,232.948 289.159,232.429 L288.083,230.975 L288.389,230.763 L290.177,233.127 L290.087,233.315 L289.606,234.195 ZM278.360,233.171 C278.659,232.686 279.117,232.633 279.734,233.013 C280.780,233.658 281.623,234.822 282.262,236.507 C282.902,238.191 283.178,239.981 283.090,241.877 C283.002,244.021 282.471,245.883 281.498,247.463 C281.362,247.685 281.210,247.744 281.044,247.642 C280.905,247.557 280.706,247.290 280.446,246.844 C280.820,246.424 281.143,245.992 281.416,245.549 C282.718,243.435 283.018,241.111 282.315,238.575 C281.801,236.710 280.951,235.412 279.766,234.682 C279.212,234.340 278.809,234.374 278.557,234.783 C278.344,235.129 278.336,235.813 278.534,236.833 C278.732,237.854 279.068,238.864 279.542,239.863 C280.201,241.244 281.041,242.426 282.061,243.408 C281.697,243.595 281.273,243.539 280.788,243.240 C280.116,242.826 279.552,242.011 279.098,240.794 C278.920,241.143 278.764,241.615 278.627,242.210 L278.501,242.018 C277.431,240.450 276.771,239.590 276.522,239.436 C276.321,239.312 276.170,239.348 276.068,239.544 C275.975,239.726 275.924,240.119 275.914,240.725 L275.780,240.732 C275.856,240.827 275.937,240.916 276.001,241.027 C275.002,241.011 274.308,241.323 273.920,241.963 C273.612,242.471 273.514,243.026 273.626,243.626 C273.737,244.227 274.023,244.667 274.482,244.945 C274.725,245.093 275.046,245.192 275.444,245.243 L277.164,245.443 C277.500,245.485 277.828,245.603 278.148,245.797 C278.725,246.147 279.179,246.860 279.507,247.935 C279.719,248.653 279.790,249.284 279.722,249.828 C279.654,250.372 279.424,250.968 279.032,251.615 C278.880,251.866 278.719,252.091 278.549,252.293 L278.420,252.058 L277.875,251.028 C277.678,250.661 277.488,250.284 277.304,249.897 L277.207,249.681 L277.542,249.527 C277.598,249.608 277.639,249.666 277.665,249.702 C277.876,250.029 278.044,250.231 278.169,250.307 C278.433,250.467 278.707,250.314 278.990,249.848 C279.247,249.423 279.314,248.955 279.192,248.443 C279.069,247.931 278.799,247.548 278.382,247.295 C278.159,247.160 277.852,247.069 277.462,247.023 L276.083,246.872 C275.620,246.820 275.172,246.663 274.741,246.401 C273.899,245.891 273.383,244.945 273.192,243.564 C273.031,242.371 273.137,241.465 273.513,240.846 C273.728,240.491 273.994,240.252 274.311,240.130 C274.627,240.008 274.925,240.031 275.203,240.200 C275.320,240.271 275.420,240.364 275.521,240.454 C275.476,239.452 275.653,238.295 276.078,236.969 C276.756,237.435 277.708,238.590 278.932,240.434 C278.430,238.891 278.124,237.434 278.013,236.061 C277.903,234.688 278.019,233.725 278.360,233.171 ZM275.351,250.859 C276.390,252.307 277.002,253.153 277.188,253.398 L277.366,253.647 L278.188,252.275 L278.415,252.610 L278.333,252.746 C277.973,253.346 277.826,253.806 277.891,254.125 C277.956,254.443 278.318,255.042 278.978,255.921 C278.908,256.022 278.863,256.089 278.842,256.124 C278.641,256.459 278.484,256.816 278.371,257.194 C278.215,256.996 277.965,256.661 277.621,256.190 L277.056,255.424 L276.877,255.175 L275.993,256.652 L275.760,256.327 L276.645,254.851 L276.517,254.660 C276.317,254.360 275.716,253.511 274.713,252.114 C274.304,251.546 273.743,250.755 273.032,249.741 C272.207,248.553 271.644,247.870 271.344,247.690 C271.044,247.510 270.802,247.574 270.617,247.881 C270.396,248.251 270.309,248.887 270.357,249.788 L269.984,249.793 C269.914,249.182 269.928,248.540 270.027,247.869 C270.126,247.197 270.280,246.687 270.489,246.338 C270.803,245.815 271.165,245.676 271.577,245.923 C271.870,246.099 272.518,246.885 273.521,248.283 L275.351,250.859 ZM271.397,262.257 C271.451,262.165 271.496,262.032 271.532,261.855 L271.632,261.320 C271.642,261.288 271.656,261.207 271.675,261.077 L272.074,261.168 L272.019,261.432 C271.853,262.381 271.713,263.364 271.601,264.381 L271.564,264.784 L271.448,264.716 C270.787,264.331 269.733,263.133 268.286,261.123 L266.969,259.310 C266.261,258.342 265.806,257.789 265.603,257.652 C265.389,257.518 265.218,257.578 265.088,257.833 C265.014,257.978 264.952,258.253 264.904,258.658 L264.519,258.617 C264.634,257.206 264.772,256.104 264.932,255.312 C265.573,255.732 266.120,256.195 266.575,256.700 C267.030,257.205 267.730,258.133 268.675,259.484 C269.892,261.211 270.638,262.163 270.911,262.341 C271.120,262.482 271.283,262.454 271.397,262.257 ZM267.481,264.253 C268.546,265.681 269.174,266.516 269.365,266.757 L269.547,267.002 L270.344,265.616 L270.576,265.946 L270.497,266.084 C270.149,266.691 270.010,267.153 270.081,267.471 C270.152,267.788 270.525,268.380 271.200,269.247 C271.133,269.349 271.089,269.417 271.068,269.453 C270.874,269.791 270.724,270.151 270.618,270.531 C270.458,270.336 270.202,270.006 269.849,269.541 L269.269,268.785 L269.087,268.540 L268.230,270.032 L267.991,269.712 L268.848,268.220 L268.717,268.032 C268.512,267.735 267.895,266.898 266.866,265.519 C266.446,264.959 265.872,264.178 265.142,263.177 C264.295,262.005 263.719,261.332 263.416,261.158 C263.113,260.984 262.872,261.052 262.693,261.362 C262.479,261.736 262.403,262.374 262.468,263.274 L262.096,263.286 C262.014,262.676 262.017,262.034 262.103,261.361 C262.189,260.688 262.334,260.175 262.536,259.822 C262.840,259.293 263.200,259.148 263.617,259.387 C263.913,259.557 264.576,260.332 265.604,261.711 L267.481,264.253 ZM262.285,281.086 C262.238,281.172 262.151,281.314 262.023,281.514 L260.033,278.462 L260.239,278.088 L260.374,278.273 C260.779,278.820 261.086,279.150 261.293,279.263 C261.550,279.404 261.827,279.203 262.124,278.660 C262.581,277.825 262.622,276.910 262.248,275.917 C261.893,274.971 261.362,274.038 260.655,273.118 C259.948,272.198 259.277,271.564 258.642,271.216 C257.856,270.786 257.267,270.932 256.872,271.653 C256.536,272.267 256.454,273.043 256.627,273.982 C256.800,274.921 257.197,275.848 257.819,276.763 L258.202,277.335 C258.222,277.364 258.265,277.430 258.331,277.531 C258.152,277.535 257.992,277.498 257.849,277.420 C257.235,277.084 256.735,276.217 256.350,274.818 C255.789,272.758 255.814,271.171 256.423,270.057 C256.943,269.108 257.738,268.926 258.809,269.512 C259.730,270.016 260.552,270.870 261.276,272.073 C262.000,273.276 262.505,274.624 262.792,276.117 C263.173,278.116 263.004,279.773 262.285,281.086 ZM259.256,282.901 C259.356,283.743 259.352,284.602 259.243,285.477 C259.134,286.353 258.945,287.046 258.677,287.558 C258.511,287.875 258.287,287.960 258.006,287.813 C257.898,287.756 257.746,287.617 257.550,287.395 C257.786,287.031 257.970,286.724 258.102,286.472 C259.095,284.575 259.128,282.742 258.200,280.970 C257.831,280.271 257.345,279.589 256.743,278.925 C256.140,278.260 255.586,277.795 255.082,277.531 C254.728,277.346 254.384,277.297 254.050,277.383 C253.715,277.470 253.465,277.672 253.299,277.989 C252.906,278.739 253.073,279.883 253.802,281.422 C254.530,282.961 255.395,283.993 256.397,284.518 C256.620,284.635 256.841,284.674 257.058,284.636 C257.275,284.599 257.428,284.497 257.514,284.331 C257.817,283.754 257.529,282.901 256.651,281.770 C256.814,281.810 256.949,281.858 257.058,281.915 C257.505,282.149 257.828,282.671 258.027,283.484 C258.227,284.295 258.196,284.950 257.936,285.447 C257.762,285.779 257.480,285.989 257.088,286.078 C256.697,286.168 256.307,286.110 255.918,285.906 C254.613,285.223 253.665,283.665 253.074,281.233 C252.552,279.141 252.539,277.623 253.034,276.679 C253.249,276.268 253.575,276.005 254.012,275.889 C254.449,275.774 254.891,275.833 255.339,276.067 C256.326,276.584 257.179,277.469 257.896,278.723 C258.613,279.975 259.066,281.368 259.256,282.901 ZM250.052,285.494 C250.215,286.083 250.537,286.497 251.018,286.735 C251.273,286.861 251.601,286.933 252.002,286.949 L253.732,287.002 C254.071,287.015 254.408,287.105 254.743,287.271 C255.349,287.571 255.861,288.242 256.280,289.285 C256.552,289.983 256.677,290.605 256.656,291.153 C256.634,291.701 256.456,292.314 256.120,292.993 C255.990,293.255 255.849,293.494 255.697,293.709 L255.549,293.486 L254.917,292.506 C254.690,292.157 254.469,291.798 254.252,291.428 L254.137,291.221 L254.458,291.039 C254.520,291.115 254.566,291.170 254.595,291.203 C254.833,291.511 255.018,291.698 255.149,291.763 C255.426,291.900 255.686,291.724 255.927,291.235 C256.148,290.790 256.175,290.318 256.009,289.818 C255.843,289.319 255.542,288.961 255.104,288.744 C254.871,288.628 254.558,288.564 254.164,288.551 L252.778,288.518 C252.312,288.506 251.853,288.387 251.400,288.164 C250.518,287.727 249.923,286.828 249.615,285.469 C249.352,284.294 249.381,283.382 249.703,282.733 C249.887,282.361 250.131,282.101 250.437,281.952 C250.742,281.804 251.040,281.801 251.332,281.946 C251.675,282.116 251.963,282.367 252.197,282.701 C251.200,282.771 250.536,283.141 250.204,283.812 C249.940,284.344 249.890,284.905 250.052,285.494 ZM252.477,292.469 C253.663,293.800 254.360,294.577 254.571,294.800 L254.774,295.029 L255.448,293.579 L255.708,293.888 L255.641,294.032 C255.346,294.667 255.248,295.140 255.346,295.450 C255.444,295.760 255.867,296.318 256.615,297.123 C256.556,297.230 256.518,297.302 256.501,297.339 C256.336,297.693 256.218,298.064 256.145,298.453 C255.969,298.272 255.685,297.965 255.294,297.532 L254.651,296.830 L254.448,296.601 L253.723,298.162 L253.457,297.864 L254.183,296.303 L254.035,296.127 C253.805,295.849 253.118,295.068 251.975,293.783 C251.508,293.261 250.868,292.533 250.055,291.599 C249.110,290.505 248.478,289.884 248.161,289.736 C247.843,289.589 247.609,289.678 247.459,290.002 C247.277,290.393 247.257,291.035 247.399,291.927 L247.029,291.970 C246.895,291.369 246.842,290.730 246.870,290.052 C246.898,289.374 246.998,288.851 247.169,288.482 C247.426,287.928 247.772,287.752 248.208,287.955 C248.518,288.099 249.245,288.813 250.389,290.098 L252.477,292.469 ZM249.838,303.351 C250.111,303.459 250.287,303.393 250.366,303.154 C250.418,302.999 250.425,302.744 250.388,302.389 L250.805,302.373 C250.845,303.132 251.018,304.150 251.323,305.426 L251.401,305.734 C251.216,305.699 251.061,305.660 250.938,305.619 C250.281,305.402 249.109,304.567 247.421,303.116 C249.451,306.172 250.270,308.292 249.879,309.474 C249.763,309.821 249.520,309.934 249.149,309.811 C248.593,309.626 247.487,308.826 245.830,307.411 C246.702,308.686 247.386,309.983 247.884,311.301 C248.381,312.619 248.538,313.556 248.354,314.112 C248.246,314.437 248.030,314.545 247.706,314.437 C247.481,314.363 246.841,313.825 245.784,312.823 C243.217,310.403 241.690,309.112 241.204,308.951 C240.995,308.882 240.858,308.948 240.791,309.149 C240.742,309.295 240.762,309.585 240.850,310.017 L240.488,310.103 C240.172,309.089 240.016,307.957 240.019,306.706 C241.662,307.388 243.740,308.956 246.253,311.410 L246.860,311.984 C246.955,312.084 247.042,312.147 247.119,312.173 C247.304,312.234 247.424,312.184 247.478,312.021 C247.588,311.689 247.311,310.869 246.648,309.560 C246.173,308.613 245.487,307.643 244.591,306.647 C243.695,305.651 242.714,304.758 241.647,303.967 C241.683,303.473 241.647,302.856 241.540,302.118 L241.822,302.353 L243.295,303.613 C244.385,304.540 245.475,305.416 246.565,306.240 C247.655,307.065 248.331,307.520 248.594,307.607 C248.818,307.682 248.965,307.614 249.034,307.406 C249.121,307.143 248.954,306.604 248.535,305.787 C248.115,304.971 247.591,304.167 246.962,303.375 C245.858,301.998 244.564,300.690 243.080,299.452 C243.082,299.341 243.082,299.277 243.080,299.259 L243.063,298.572 C243.060,298.296 243.048,298.009 243.027,297.711 C243.360,298.027 244.089,298.672 245.215,299.645 L247.094,301.271 C248.521,302.499 249.436,303.192 249.838,303.351 ZM245.390,317.405 C245.902,319.097 245.969,320.463 245.592,321.503 C245.373,322.108 245.041,322.329 244.597,322.169 C244.307,322.063 244.009,321.791 243.705,321.352 C243.402,320.912 243.164,320.415 242.993,319.860 C242.842,319.346 242.753,318.732 242.727,318.017 C242.700,317.302 242.748,316.776 242.870,316.439 C243.001,316.080 243.290,315.903 243.737,315.910 C243.575,316.214 243.459,316.462 243.390,316.654 C243.112,317.419 243.076,318.204 243.282,319.010 C243.487,319.816 243.846,320.312 244.359,320.498 C244.726,320.631 244.996,320.460 245.168,319.986 C245.476,319.137 245.270,318.080 244.552,316.815 C244.045,315.922 243.375,315.094 242.543,314.334 C241.711,313.573 240.912,313.054 240.147,312.777 C239.359,312.491 238.846,312.677 238.607,313.335 C238.346,314.054 238.471,314.946 238.981,316.010 C239.492,317.073 240.277,318.087 241.339,319.052 C241.085,319.081 240.875,319.066 240.706,319.005 C239.972,318.738 239.311,317.923 238.724,316.559 C237.862,314.567 237.620,313.051 237.997,312.010 C238.321,311.115 238.992,310.852 240.010,311.221 C241.158,311.637 242.236,312.424 243.244,313.582 C244.253,314.740 244.968,316.014 245.390,317.405 ZM238.747,332.306 C237.735,335.579 235.302,338.723 231.447,341.740 L230.985,340.178 C232.593,338.972 234.073,337.496 235.426,335.751 C236.779,334.006 237.681,332.406 238.130,330.952 C238.626,329.350 238.603,327.895 238.062,326.587 C237.521,325.278 236.586,324.418 235.256,324.007 C234.393,323.740 233.471,323.687 232.488,323.848 C231.506,324.008 230.592,324.367 229.747,324.923 C229.021,325.397 228.324,326.123 227.656,327.100 C226.987,328.078 226.487,329.103 226.155,330.176 C225.057,333.729 225.851,337.318 228.538,340.942 C229.575,342.328 230.896,343.722 232.502,345.126 C234.108,346.530 235.651,347.635 237.131,348.442 L239.593,349.778 L241.081,350.583 C241.175,350.638 241.318,350.712 241.511,350.805 C241.577,350.400 241.659,350.038 241.757,349.719 L242.116,348.642 C242.227,348.284 242.286,347.927 242.294,347.572 C242.304,347.013 242.156,346.516 241.848,346.080 C241.539,345.644 241.129,345.346 240.616,345.188 C240.126,345.036 239.628,345.021 239.122,345.141 C238.617,345.262 237.952,345.552 237.128,346.013 C236.324,346.463 235.670,346.610 235.165,346.454 C234.488,346.245 233.900,345.797 233.401,345.110 C232.902,344.424 232.730,343.831 232.884,343.334 C233.006,342.937 233.248,342.658 233.609,342.497 C233.969,342.336 234.379,342.327 234.838,342.469 C234.892,342.485 234.979,342.521 235.099,342.575 C234.227,342.859 233.715,343.250 233.561,343.748 C233.335,344.478 233.603,344.962 234.365,345.197 C234.823,345.339 235.521,345.137 236.456,344.592 C237.610,343.918 238.746,343.754 239.866,344.100 C241.094,344.480 242.017,345.257 242.633,346.431 C243.250,347.606 243.368,348.807 242.988,350.036 L242.633,351.101 L242.304,352.085 C242.229,352.326 242.173,352.522 242.135,352.672 L241.748,352.476 C239.105,351.079 236.928,349.746 235.217,348.476 C233.505,347.206 231.918,345.740 230.456,344.078 C225.597,338.581 223.837,333.667 225.176,329.336 C225.560,328.092 226.170,326.948 227.004,325.902 C227.838,324.857 228.768,324.067 229.794,323.532 C231.336,322.731 233.002,322.607 234.790,323.160 C236.555,323.706 237.815,324.851 238.570,326.597 C239.325,328.342 239.384,330.245 238.747,332.306 ZM226.321,360.339 C226.663,360.327 227.634,360.636 229.236,361.265 L232.171,362.434 C233.830,363.085 234.804,363.463 235.093,363.567 L235.377,363.679 L235.343,362.691 L235.233,362.618 L234.268,361.963 C233.923,361.732 233.578,361.488 233.234,361.231 L233.047,361.086 L233.272,360.793 C233.359,360.839 233.422,360.871 233.462,360.890 C233.801,361.081 234.044,361.180 234.191,361.189 C234.499,361.207 234.669,360.943 234.701,360.399 C234.729,359.903 234.570,359.458 234.222,359.063 C233.873,358.668 233.456,358.456 232.968,358.428 C232.708,358.413 232.395,358.476 232.028,358.618 L230.739,359.131 C230.305,359.302 229.836,359.372 229.333,359.343 C228.350,359.287 227.451,358.692 226.636,357.561 C225.934,356.583 225.604,355.733 225.646,355.010 C225.670,354.596 225.793,354.260 226.016,354.004 C226.238,353.748 226.512,353.629 226.837,353.648 C226.955,353.655 227.069,353.688 227.183,353.714 C227.011,353.089 226.815,352.248 226.596,351.184 L226.528,350.840 C227.804,351.260 229.137,351.888 230.527,352.724 C229.385,351.475 228.518,350.327 227.925,349.279 C227.332,348.231 227.085,347.405 227.182,346.803 C227.268,346.273 227.588,346.052 228.142,346.142 C228.809,346.250 230.099,346.966 232.011,348.290 L233.880,349.582 C234.458,349.980 234.883,350.210 235.153,350.270 C235.416,350.329 235.570,350.214 235.617,349.925 C235.638,349.796 235.626,349.564 235.582,349.227 L235.959,349.189 L235.988,349.391 C236.135,350.569 236.309,351.558 236.509,352.357 C235.867,352.253 234.868,351.724 233.514,350.771 L231.539,349.376 C230.022,348.306 229.079,347.741 228.709,347.681 C228.364,347.625 228.167,347.749 228.117,348.055 C227.991,348.834 228.637,349.998 230.056,351.547 C231.474,353.096 233.102,354.410 234.938,355.491 L235.299,355.710 C235.271,356.184 235.332,356.750 235.481,357.409 C234.495,356.672 233.092,355.744 231.270,354.625 C229.448,353.505 228.377,352.911 228.059,352.843 C227.811,352.795 227.664,352.911 227.619,353.193 C227.593,353.352 227.614,353.594 227.657,353.877 C227.748,353.919 227.841,353.950 227.929,354.005 C227.842,354.049 227.779,354.101 227.700,354.148 C227.703,354.161 227.703,354.170 227.706,354.184 L227.586,354.219 C226.931,354.643 226.566,355.168 226.529,355.807 C226.495,356.400 226.667,356.935 227.048,357.414 C227.427,357.892 227.886,358.147 228.422,358.178 C228.706,358.194 229.036,358.132 229.411,357.991 L231.024,357.362 C231.341,357.242 231.686,357.193 232.060,357.214 C232.734,357.253 233.468,357.670 234.262,358.466 C234.785,359.002 235.144,359.526 235.339,360.038 C235.534,360.551 235.609,361.185 235.566,361.941 C235.561,362.022 235.543,362.092 235.535,362.172 L235.694,362.239 L235.700,362.398 C235.724,363.097 235.850,363.563 236.078,363.795 C236.305,364.028 236.935,364.334 237.966,364.714 C237.962,364.836 237.961,364.917 237.962,364.958 C237.975,365.348 238.038,365.733 238.148,366.112 C237.909,366.031 237.518,365.885 236.973,365.676 L236.082,365.340 L235.797,365.228 L235.856,366.948 L235.485,366.802 L235.426,365.082 L235.215,364.992 C234.884,364.848 233.918,364.462 232.317,363.833 C231.665,363.579 230.765,363.219 229.617,362.754 C228.279,362.206 227.435,361.938 227.085,361.950 C226.736,361.962 226.567,362.146 226.579,362.504 C226.594,362.935 226.866,363.516 227.397,364.247 L227.086,364.453 C226.695,363.978 226.359,363.432 226.077,362.815 C225.795,362.198 225.647,361.686 225.633,361.279 C225.612,360.669 225.841,360.356 226.321,360.339 ZM273.608,265.834 C273.791,265.940 273.915,266.108 273.978,266.339 C274.042,266.569 274.018,266.779 273.908,266.969 C273.719,267.292 273.463,267.360 273.140,267.171 C272.957,267.065 272.834,266.896 272.770,266.666 C272.707,266.436 272.728,266.229 272.834,266.047 C273.027,265.716 273.285,265.645 273.608,265.834 Z" class="cls-1"/>
    <path d="M263.893,253.087 C262.870,252.413 260.654,249.924 257.243,245.619 L256.910,245.185 C257.318,246.421 257.539,247.642 257.572,248.849 C257.606,250.056 257.440,250.991 257.076,251.654 C256.716,252.311 256.189,252.449 255.497,252.069 C254.713,251.638 253.996,250.780 253.346,249.495 C252.696,248.209 252.254,246.783 252.020,245.215 C251.612,242.373 251.924,240.014 252.954,238.138 L253.214,238.476 C255.577,241.510 257.738,244.203 259.696,246.555 C261.654,248.906 262.782,250.165 263.082,250.329 C263.296,250.447 263.473,250.377 263.614,250.120 C263.701,249.963 263.776,249.675 263.839,249.255 L264.235,249.319 C264.061,250.431 263.947,251.686 263.893,253.087 ZM253.142,240.330 C253.008,240.507 252.914,240.646 252.859,240.746 C251.993,242.322 252.014,244.168 252.924,246.282 C253.291,247.134 253.748,247.926 254.293,248.657 C254.839,249.388 255.336,249.877 255.786,250.124 C256.285,250.398 256.664,250.300 256.922,249.829 C257.369,249.016 257.210,247.652 256.446,245.738 C255.683,243.824 254.581,242.021 253.142,240.330 ZM254.015,254.290 C254.281,256.038 254.153,257.399 253.631,258.375 C253.328,258.942 252.968,259.115 252.552,258.892 C252.279,258.746 252.024,258.435 251.786,257.957 C251.547,257.479 251.383,256.953 251.293,256.379 C251.217,255.849 251.216,255.228 251.292,254.516 C251.368,253.805 251.490,253.291 251.659,252.975 C251.839,252.638 252.151,252.504 252.593,252.575 C252.389,252.853 252.239,253.082 252.143,253.262 C251.759,253.979 251.612,254.752 251.700,255.579 C251.789,256.406 252.073,256.948 252.554,257.205 C252.899,257.389 253.190,257.258 253.428,256.814 C253.854,256.017 253.801,254.941 253.270,253.587 C252.895,252.630 252.350,251.716 251.635,250.845 C250.920,249.973 250.203,249.346 249.485,248.962 C248.746,248.567 248.212,248.678 247.882,249.296 C247.521,249.970 247.518,250.870 247.871,251.996 C248.225,253.121 248.858,254.237 249.771,255.343 C249.516,255.336 249.310,255.291 249.152,255.206 C248.463,254.838 247.925,253.937 247.538,252.503 C246.969,250.408 246.945,248.873 247.466,247.897 C247.915,247.057 248.617,246.893 249.572,247.403 C250.648,247.978 251.603,248.911 252.436,250.200 C253.270,251.490 253.796,252.853 254.015,254.290 ZM250.459,260.379 C250.880,262.370 250.744,264.029 250.052,265.357 C250.007,265.444 249.922,265.588 249.799,265.790 L247.748,262.779 L247.945,262.400 L248.084,262.583 C248.501,263.121 248.814,263.445 249.023,263.554 C249.283,263.690 249.556,263.483 249.842,262.935 C250.282,262.091 250.305,261.175 249.910,260.190 C249.537,259.251 248.987,258.329 248.262,257.423 C247.537,256.517 246.853,255.897 246.211,255.562 C245.417,255.148 244.830,255.306 244.450,256.035 C244.127,256.655 244.060,257.433 244.252,258.368 C244.444,259.303 244.859,260.222 245.499,261.125 L245.894,261.688 C245.915,261.718 245.959,261.782 246.027,261.882 C245.848,261.889 245.687,261.856 245.543,261.781 C244.922,261.457 244.405,260.600 243.992,259.210 C243.390,257.161 243.382,255.574 243.969,254.448 C244.470,253.489 245.261,253.291 246.344,253.855 C247.274,254.341 248.114,255.178 248.862,256.366 C249.609,257.555 250.142,258.892 250.459,260.379 ZM245.319,263.142 C246.097,264.767 246.522,266.528 246.594,268.425 C246.686,270.569 246.314,272.468 245.476,274.124 C245.359,274.357 245.213,274.429 245.039,274.341 C244.938,274.290 244.788,274.124 244.615,273.905 L244.599,274.009 C244.401,275.179 244.282,276.176 244.244,276.999 C243.659,276.714 242.855,275.921 241.832,274.618 L240.343,272.712 C239.199,271.251 238.458,270.438 238.122,270.274 C237.807,270.121 237.582,270.184 237.447,270.462 C237.102,271.172 237.385,272.473 238.297,274.364 C239.210,276.256 240.390,277.984 241.837,279.548 L242.119,279.861 C241.956,280.307 241.851,280.867 241.804,281.541 C241.073,280.551 239.996,279.258 238.573,277.662 C237.151,276.065 236.297,275.188 236.012,275.031 C235.788,274.913 235.614,274.982 235.490,275.238 C235.403,275.416 235.343,275.712 235.303,276.097 C235.365,276.164 235.434,276.220 235.490,276.296 C234.494,276.387 233.838,276.771 233.520,277.449 C233.268,277.987 233.229,278.549 233.404,279.134 C233.579,279.719 233.910,280.126 234.396,280.354 C234.654,280.475 234.983,280.540 235.384,280.548 L237.115,280.564 C237.454,280.570 237.793,280.653 238.132,280.812 C238.743,281.098 239.270,281.758 239.711,282.792 C239.998,283.484 240.136,284.104 240.126,284.652 C240.116,285.200 239.951,285.817 239.629,286.502 C239.505,286.768 239.369,287.009 239.222,287.228 L239.069,287.008 L238.416,286.041 C238.182,285.698 237.953,285.343 237.729,284.977 L237.609,284.773 L237.926,284.585 C237.990,284.659 238.037,284.713 238.067,284.745 C238.311,285.048 238.500,285.231 238.632,285.293 C238.912,285.424 239.168,285.243 239.400,284.750 C239.610,284.300 239.628,283.827 239.451,283.331 C239.275,282.835 238.966,282.483 238.524,282.276 C238.288,282.166 237.973,282.108 237.580,282.103 L236.193,282.100 C235.727,282.097 235.265,281.989 234.808,281.775 C233.917,281.356 233.303,280.471 232.967,279.118 C232.679,277.949 232.689,277.037 232.996,276.381 C233.172,276.005 233.411,275.740 233.713,275.585 C234.015,275.430 234.313,275.421 234.608,275.560 C234.721,275.613 234.820,275.689 234.922,275.760 C234.930,275.097 234.985,274.193 235.089,273.021 L235.123,272.671 C236.224,273.441 237.319,274.427 238.409,275.627 C237.676,274.103 237.176,272.753 236.910,271.579 C236.644,270.404 236.645,269.543 236.912,268.994 C237.147,268.511 237.517,268.392 238.022,268.638 C238.629,268.933 239.658,269.990 241.108,271.809 L242.525,273.584 C242.965,274.132 243.305,274.474 243.547,274.610 C243.781,274.742 243.962,274.677 244.090,274.413 C244.147,274.296 244.203,274.070 244.258,273.734 L244.523,273.786 C244.472,273.718 244.432,273.675 244.376,273.595 C244.713,273.145 244.999,272.688 245.234,272.223 C246.354,270.008 246.457,267.667 245.544,265.199 C244.875,263.383 243.920,262.162 242.678,261.534 C242.097,261.240 241.698,261.307 241.482,261.736 C241.298,262.099 241.348,262.780 241.631,263.781 C241.914,264.781 242.333,265.759 242.889,266.715 C243.662,268.036 244.598,269.143 245.697,270.036 C245.350,270.253 244.922,270.233 244.414,269.976 C243.710,269.620 243.080,268.854 242.525,267.680 C242.377,268.043 242.261,268.527 242.174,269.131 L242.033,268.950 C240.835,267.478 240.105,266.675 239.844,266.543 C239.633,266.437 239.486,266.485 239.401,266.689 C239.324,266.877 239.306,267.274 239.347,267.879 L238.964,267.931 C238.776,266.879 238.853,265.609 239.194,264.122 C239.909,264.529 240.955,265.600 242.330,267.335 C241.700,265.840 241.272,264.413 241.047,263.055 C240.822,261.696 240.857,260.726 241.150,260.146 C241.408,259.637 241.859,259.546 242.506,259.873 C243.602,260.428 244.540,261.518 245.319,263.142 ZM237.064,288.496 C237.446,290.222 237.409,291.590 236.953,292.598 C236.689,293.184 236.341,293.380 235.911,293.186 C235.629,293.059 235.354,292.765 235.084,292.304 C234.815,291.843 234.616,291.329 234.488,290.762 C234.376,290.238 234.334,289.619 234.362,288.904 C234.390,288.189 234.478,287.668 234.625,287.342 C234.783,286.993 235.084,286.839 235.530,286.880 C235.345,287.171 235.211,287.410 235.127,287.595 C234.792,288.337 234.697,289.117 234.840,289.937 C234.984,290.756 235.304,291.278 235.801,291.502 C236.157,291.663 236.439,291.513 236.646,291.053 C237.018,290.230 236.894,289.161 236.273,287.845 C235.836,286.915 235.231,286.039 234.459,285.218 C233.687,284.396 232.930,283.818 232.189,283.483 C231.425,283.138 230.899,283.284 230.611,283.922 C230.296,284.620 230.353,285.518 230.780,286.617 C231.208,287.717 231.914,288.788 232.899,289.831 C232.645,289.841 232.436,289.809 232.273,289.735 C231.561,289.414 230.964,288.550 230.482,287.146 C229.774,285.094 229.648,283.563 230.103,282.555 C230.495,281.687 231.184,281.476 232.171,281.921 C233.283,282.423 234.298,283.290 235.216,284.521 C236.133,285.752 236.749,287.077 237.064,288.496 ZM232.841,300.504 L233.054,300.723 L233.660,299.243 L233.935,299.540 L233.874,299.687 C233.609,300.335 233.533,300.811 233.645,301.117 C233.758,301.422 234.206,301.959 234.990,302.729 C234.936,302.839 234.901,302.913 234.886,302.950 C234.738,303.312 234.637,303.688 234.582,304.079 C234.397,303.907 234.100,303.613 233.689,303.199 L233.015,302.527 L232.801,302.308 L232.149,303.901 L231.870,303.615 L232.522,302.022 L232.367,301.853 C232.125,301.586 231.402,300.838 230.201,299.607 C229.710,299.107 229.037,298.409 228.182,297.514 C227.187,296.465 226.528,295.874 226.204,295.741 C225.880,295.608 225.650,295.708 225.515,296.039 C225.351,296.438 225.361,297.080 225.544,297.964 L225.177,298.024 C225.015,297.431 224.933,296.794 224.929,296.116 C224.926,295.437 225.001,294.910 225.155,294.533 C225.387,293.968 225.724,293.777 226.169,293.959 C226.485,294.088 227.244,294.769 228.446,296.000 L230.642,298.271 C231.888,299.546 232.620,300.290 232.841,300.504 ZM229.832,303.572 L232.712,306.211 C234.132,307.495 235.037,308.210 235.425,308.357 C235.691,308.457 235.871,308.386 235.962,308.142 C236.006,308.028 236.033,307.782 236.045,307.404 L236.044,307.234 L236.419,307.244 C236.381,308.265 236.438,309.326 236.588,310.426 L236.632,310.691 C236.484,310.644 236.376,310.607 236.308,310.582 C235.744,310.369 234.984,309.865 234.028,309.069 C233.071,308.273 231.438,306.787 229.127,304.611 L226.612,302.253 L226.344,301.995 L226.510,302.280 C229.019,306.558 230.038,309.321 229.567,310.570 C229.429,310.935 229.177,311.049 228.812,310.911 C228.545,310.811 228.163,310.510 227.665,310.009 L226.367,308.710 C224.184,306.521 222.883,305.347 222.464,305.189 C222.296,305.126 222.180,305.182 222.114,305.357 C222.036,305.563 222.038,305.950 222.118,306.520 L222.137,306.645 L221.762,306.738 C221.640,305.840 221.590,304.716 221.612,303.367 L221.617,303.043 C222.773,303.575 224.724,305.250 227.470,308.070 C227.896,308.508 228.200,308.763 228.383,308.831 C228.619,308.920 228.770,308.877 228.836,308.702 C228.911,308.504 228.845,308.079 228.639,307.428 C228.432,306.776 228.152,306.113 227.797,305.440 C227.275,304.425 226.613,303.360 225.812,302.245 C225.011,301.129 224.279,300.251 223.617,299.610 C223.749,299.051 223.783,298.498 223.720,297.953 L223.969,298.190 C224.985,299.165 225.972,300.085 226.933,300.952 L229.832,303.572 ZM227.145,313.491 C227.710,315.166 227.821,316.530 227.476,317.581 C227.276,318.192 226.952,318.425 226.503,318.278 C226.209,318.182 225.904,317.919 225.586,317.489 C225.268,317.060 225.015,316.571 224.827,316.021 C224.660,315.512 224.552,314.901 224.503,314.187 C224.454,313.473 224.485,312.946 224.596,312.606 C224.715,312.242 224.999,312.057 225.446,312.049 C225.294,312.359 225.186,312.610 225.122,312.804 C224.869,313.577 224.858,314.363 225.089,315.163 C225.320,315.962 225.694,316.446 226.212,316.616 C226.584,316.737 226.848,316.558 227.005,316.079 C227.286,315.220 227.047,314.170 226.289,312.929 C225.754,312.051 225.059,311.246 224.203,310.512 C223.347,309.778 222.532,309.284 221.759,309.031 C220.962,308.771 220.455,308.973 220.237,309.638 C219.999,310.365 220.152,311.252 220.696,312.299 C221.239,313.346 222.057,314.335 223.148,315.266 C222.896,315.303 222.685,315.294 222.515,315.238 C221.772,314.995 221.086,314.201 220.456,312.856 C219.531,310.892 219.241,309.385 219.586,308.333 C219.882,307.428 220.544,307.144 221.573,307.481 C222.733,307.860 223.835,308.613 224.880,309.738 C225.924,310.863 226.679,312.114 227.145,313.491 Z" class="cls-1"/>
    <path d="M235.089,264.746 L234.139,264.809 L233.834,264.824 L234.598,266.366 L234.200,266.387 L233.435,264.845 L233.206,264.849 C232.845,264.855 231.806,264.903 230.088,264.992 C229.389,265.029 228.421,265.073 227.183,265.124 C225.738,265.177 224.859,265.281 224.545,265.437 C224.232,265.592 224.155,265.830 224.314,266.151 C224.505,266.538 224.993,266.954 225.778,267.401 L225.580,267.717 C225.028,267.446 224.496,267.087 223.985,266.641 C223.473,266.196 223.127,265.790 222.946,265.426 C222.675,264.879 222.754,264.499 223.185,264.286 C223.491,264.134 224.503,264.014 226.221,263.925 L229.377,263.777 C231.157,263.685 232.200,263.627 232.506,263.602 L232.811,263.587 L232.101,262.154 L232.505,262.145 L232.576,262.287 C232.887,262.914 233.194,263.286 233.497,263.404 C233.801,263.521 234.500,263.540 235.596,263.460 C235.643,263.573 235.675,263.647 235.694,263.684 C235.867,264.034 236.083,264.358 236.340,264.658 C236.089,264.682 235.672,264.712 235.089,264.746 ZM230.043,260.744 C229.509,260.733 228.967,260.634 228.417,260.447 C227.912,260.268 227.363,259.980 226.768,259.582 C226.173,259.184 225.775,258.837 225.574,258.541 C225.359,258.225 225.385,257.887 225.653,257.528 C225.805,257.838 225.938,258.077 226.052,258.246 C226.509,258.919 227.125,259.409 227.898,259.715 C228.672,260.021 229.284,260.020 229.735,259.714 C230.058,259.495 230.078,259.176 229.794,258.759 C229.287,258.012 228.310,257.558 226.864,257.399 C225.843,257.286 224.780,257.344 223.676,257.572 C222.572,257.800 221.684,258.143 221.010,258.601 C220.317,259.071 220.167,259.596 220.560,260.175 C220.990,260.808 221.785,261.230 222.946,261.440 C224.107,261.650 225.389,261.608 226.793,261.314 C226.668,261.536 226.532,261.697 226.384,261.798 C225.738,262.237 224.690,262.294 223.240,261.971 C221.121,261.501 219.751,260.809 219.129,259.893 C218.594,259.105 218.774,258.408 219.670,257.799 C220.679,257.114 221.949,256.702 223.478,256.563 C225.007,256.425 226.459,256.592 227.833,257.066 C229.504,257.643 230.650,258.389 231.272,259.305 C231.633,259.837 231.618,260.235 231.228,260.500 C230.972,260.674 230.577,260.755 230.043,260.744 ZM225.016,253.234 C224.491,253.332 223.941,253.346 223.364,253.275 C222.833,253.203 222.236,253.034 221.572,252.766 C220.909,252.498 220.448,252.240 220.191,251.991 C219.916,251.725 219.873,251.390 220.061,250.984 C220.273,251.256 220.452,251.463 220.599,251.604 C221.184,252.170 221.886,252.523 222.706,252.665 C223.526,252.806 224.125,252.681 224.504,252.289 C224.775,252.008 224.729,251.692 224.367,251.341 C223.717,250.714 222.668,250.470 221.220,250.610 C220.198,250.708 219.169,250.982 218.135,251.431 C217.101,251.880 216.301,252.398 215.736,252.983 C215.153,253.586 215.114,254.130 215.617,254.616 C216.167,255.148 217.032,255.398 218.211,255.366 C219.391,255.334 220.637,255.031 221.951,254.456 C221.875,254.699 221.774,254.885 221.650,255.014 C221.107,255.576 220.093,255.846 218.608,255.826 C216.437,255.799 214.954,255.402 214.159,254.633 C213.474,253.971 213.507,253.251 214.260,252.473 C215.108,251.595 216.266,250.932 217.735,250.484 C219.203,250.036 220.658,249.903 222.101,250.085 C223.854,250.309 225.129,250.804 225.925,251.574 C226.387,252.020 226.454,252.414 226.126,252.753 C225.911,252.975 225.541,253.136 225.016,253.234 ZM211.853,250.515 C210.389,251.055 209.118,251.355 208.041,251.416 C206.964,251.476 205.838,251.316 204.663,250.937 C203.651,250.611 202.865,250.490 202.305,250.573 C201.744,250.656 201.334,250.956 201.075,251.472 C200.878,251.865 200.917,252.283 201.191,252.725 C201.465,253.168 201.919,253.548 202.552,253.865 C203.330,254.256 204.139,254.421 204.980,254.360 C204.357,255.185 203.419,255.284 202.168,254.656 C201.419,254.281 200.898,253.796 200.604,253.202 C200.310,252.609 200.305,252.028 200.589,251.461 C200.947,250.748 201.676,250.176 202.775,249.744 C203.303,249.545 203.797,249.473 204.255,249.530 C204.713,249.587 205.505,249.829 206.629,250.257 C207.647,250.640 208.541,250.792 209.309,250.713 C210.546,250.588 211.739,250.207 212.886,249.571 C213.552,249.205 214.191,248.740 214.801,248.176 C215.411,247.613 215.835,247.095 216.072,246.622 C216.371,246.026 216.321,245.627 215.921,245.426 C215.245,245.087 213.943,245.340 212.017,246.186 C210.090,247.031 208.225,248.172 206.422,249.607 L206.220,249.765 L205.838,249.573 L206.155,249.213 C208.448,246.712 209.919,244.815 210.568,243.520 C210.798,243.061 210.764,242.757 210.466,242.608 C210.342,242.546 210.154,242.502 209.903,242.476 C209.860,242.473 209.800,242.465 209.723,242.454 L209.789,242.077 C209.898,242.078 209.968,242.076 209.997,242.072 L211.274,242.085 L212.612,242.032 C212.641,242.028 212.712,242.023 212.825,242.016 C212.791,242.373 212.665,242.769 212.446,243.205 C211.998,244.100 211.148,245.267 209.898,246.707 C211.806,245.771 213.471,245.124 214.893,244.767 C216.314,244.411 217.323,244.382 217.920,244.681 C218.342,244.893 218.376,245.351 218.022,246.057 C217.124,247.846 215.068,249.332 211.853,250.515 Z" class="cls-1"/>
    <path d="M220.861,314.478 C220.263,314.551 219.356,314.456 218.140,314.194 C216.923,313.931 214.787,313.371 211.732,312.513 L208.410,311.588 L208.053,311.484 L208.333,311.659 C212.538,314.288 214.721,316.265 214.882,317.590 C214.929,317.978 214.758,318.195 214.371,318.242 C214.088,318.277 213.610,318.187 212.936,317.974 L211.185,317.424 C208.235,316.495 206.539,316.058 206.094,316.112 C205.917,316.134 205.839,316.237 205.862,316.423 C205.888,316.641 206.069,316.984 206.405,317.452 L206.479,317.553 L206.190,317.810 C205.665,317.070 205.101,316.097 204.495,314.892 L204.349,314.602 C205.620,314.538 208.126,315.119 211.865,316.345 C212.446,316.537 212.833,316.621 213.027,316.598 C213.278,316.567 213.392,316.459 213.369,316.273 C213.344,316.063 213.088,315.717 212.604,315.235 C212.119,314.753 211.563,314.296 210.937,313.864 C210.004,313.206 208.925,312.569 207.698,311.952 C206.471,311.334 205.415,310.895 204.531,310.633 C204.390,310.076 204.164,309.571 203.855,309.117 L204.186,309.212 C205.537,309.605 206.839,309.963 208.092,310.287 L211.875,311.266 L215.650,312.270 C217.503,312.750 218.636,312.965 219.048,312.915 C219.331,312.881 219.456,312.734 219.425,312.476 C219.410,312.355 219.321,312.124 219.156,311.783 L219.077,311.633 L219.413,311.469 C219.853,312.391 220.395,313.305 221.038,314.211 L221.199,314.425 C221.046,314.451 220.934,314.469 220.861,314.478 ZM211.561,292.168 C212.290,293.246 212.836,294.360 213.198,295.512 C213.559,296.664 213.656,297.609 213.486,298.346 C213.319,299.076 212.850,299.353 212.081,299.176 C211.208,298.976 210.284,298.346 209.308,297.287 C208.332,296.228 207.518,294.976 206.864,293.532 C205.696,290.909 205.352,288.555 205.831,286.469 L206.173,286.723 C209.275,288.996 212.088,290.997 214.614,292.725 C217.140,294.453 218.569,295.355 218.902,295.432 C219.140,295.487 219.292,295.371 219.358,295.086 C219.398,294.911 219.391,294.613 219.337,294.192 L219.736,294.145 C219.872,295.262 220.105,296.501 220.436,297.863 C219.268,297.495 216.456,295.705 211.999,292.494 L211.561,292.168 ZM206.610,288.527 C206.530,288.733 206.476,288.892 206.451,289.003 C206.048,290.756 206.573,292.526 208.025,294.312 C208.611,295.031 209.267,295.668 209.991,296.223 C210.715,296.777 211.327,297.112 211.827,297.227 C212.382,297.354 212.720,297.156 212.840,296.633 C213.048,295.728 212.523,294.460 211.266,292.827 C210.008,291.194 208.456,289.760 206.610,288.527 ZM212.915,299.887 L215.606,301.248 C217.218,302.069 218.162,302.490 218.438,302.510 C218.657,302.526 218.776,302.408 218.794,302.157 C218.801,302.067 218.764,301.849 218.684,301.500 C218.670,301.458 218.655,301.396 218.636,301.313 L218.998,301.217 L219.058,301.405 C219.490,302.849 219.834,303.882 220.090,304.505 C219.100,304.432 217.164,303.628 214.282,302.093 C209.265,299.430 206.339,298.047 205.506,297.945 C205.142,297.902 204.957,298.035 204.951,298.345 C204.941,298.580 205.150,299.016 205.576,299.652 L205.675,299.806 L205.545,299.887 C206.492,300.076 207.499,300.555 208.570,301.335 C210.026,302.396 211.236,303.744 212.198,305.379 C213.297,307.223 213.870,309.072 213.919,310.927 C213.926,311.187 213.831,311.320 213.636,311.325 C213.473,311.330 213.161,311.216 212.699,310.983 C212.782,310.428 212.817,309.889 212.803,309.369 C212.739,306.887 211.719,304.777 209.744,303.038 C208.294,301.757 206.873,301.135 205.482,301.171 C204.831,301.188 204.512,301.437 204.525,301.917 C204.535,302.323 204.902,302.900 205.626,303.646 C206.350,304.393 207.183,305.055 208.126,305.632 C209.433,306.429 210.782,306.959 212.173,307.224 C211.971,307.579 211.585,307.764 211.016,307.779 C210.226,307.800 209.309,307.425 208.263,306.655 C208.306,307.044 208.432,307.525 208.643,308.098 L208.433,308.006 C206.680,307.278 205.657,306.918 205.364,306.926 C205.128,306.932 205.021,307.045 205.043,307.264 C205.065,307.467 205.237,307.825 205.560,308.337 L205.248,308.565 C204.583,307.728 204.048,306.573 203.643,305.102 C204.466,305.122 205.894,305.569 207.928,306.444 C206.664,305.426 205.610,304.373 204.768,303.284 C203.925,302.195 203.496,301.325 203.479,300.674 C203.464,300.105 203.818,299.810 204.542,299.791 C204.765,299.786 204.995,299.818 205.225,299.848 C204.266,298.548 203.794,297.597 203.837,297.014 C203.873,296.527 204.232,296.309 204.913,296.359 C205.441,296.398 206.167,296.621 207.092,297.028 C208.016,297.434 209.958,298.388 212.915,299.887 Z" class="cls-1"/>
    <path d="M135.287,88.082 C134.694,87.973 133.857,87.612 132.774,86.999 C131.691,86.386 129.819,85.215 127.158,83.484 L124.263,81.611 L123.954,81.405 L124.168,81.656 C127.398,85.419 128.893,87.957 128.651,89.269 C128.581,89.654 128.353,89.810 127.969,89.740 C127.689,89.688 127.259,89.460 126.680,89.056 L125.172,88.009 C122.634,86.243 121.144,85.320 120.704,85.239 C120.528,85.206 120.423,85.282 120.389,85.466 C120.350,85.683 120.420,86.064 120.601,86.610 L120.641,86.729 L120.289,86.888 C120.009,86.025 119.760,84.929 119.542,83.598 L119.489,83.278 C120.721,83.595 122.939,84.897 126.143,87.182 C126.640,87.538 126.985,87.734 127.177,87.770 C127.425,87.815 127.566,87.746 127.600,87.562 C127.638,87.354 127.498,86.947 127.179,86.343 C126.860,85.738 126.466,85.136 125.997,84.537 C125.303,83.631 124.462,82.701 123.475,81.746 C122.488,80.790 121.612,80.056 120.846,79.543 C120.877,78.969 120.812,78.420 120.653,77.894 L120.940,78.083 C122.113,78.862 123.249,79.592 124.348,80.274 L127.667,82.337 L130.970,84.421 C132.597,85.432 133.614,85.974 134.022,86.050 C134.302,86.101 134.466,85.999 134.513,85.743 C134.535,85.623 134.518,85.375 134.463,85.001 L134.432,84.834 L134.802,84.778 C134.947,85.789 135.191,86.823 135.535,87.879 L135.625,88.132 C135.471,88.112 135.359,88.095 135.287,88.082 ZM128.896,68.193 C129.920,69.186 130.477,69.997 130.566,70.625 C130.622,71.020 130.449,71.246 130.046,71.303 C129.627,71.363 128.315,71.010 126.111,70.246 C123.482,69.329 122.014,68.892 121.708,68.935 C121.474,68.968 121.373,69.094 121.404,69.311 C121.438,69.553 121.618,69.864 121.943,70.246 L122.000,70.299 L121.701,70.539 C120.871,69.670 120.225,68.595 119.764,67.312 C121.118,67.293 123.247,67.788 126.152,68.798 L127.762,69.371 C128.315,69.564 128.665,69.650 128.810,69.629 C129.027,69.598 129.123,69.494 129.098,69.317 C129.063,69.067 128.714,68.634 128.051,68.017 C127.388,67.400 126.639,66.813 125.804,66.258 C124.079,65.105 122.079,64.218 119.804,63.595 C119.662,63.229 119.392,62.721 118.996,62.070 C120.616,62.596 122.424,63.102 124.420,63.588 C126.417,64.073 127.588,64.291 127.935,64.242 C128.225,64.201 128.353,64.063 128.320,63.830 C128.303,63.709 128.205,63.456 128.027,63.070 C128.015,63.039 127.996,62.996 127.972,62.942 L128.349,62.815 C128.831,63.897 129.338,64.865 129.870,65.718 L129.965,65.865 C129.862,65.896 129.791,65.914 129.751,65.920 C129.033,66.022 127.432,65.711 124.946,64.987 L124.559,64.869 L124.818,65.042 C126.512,66.149 127.871,67.200 128.896,68.193 ZM128.504,60.583 C128.386,60.616 128.180,60.619 127.885,60.591 C127.808,60.165 127.732,59.815 127.655,59.540 C127.079,57.479 125.846,56.121 123.956,55.466 C123.209,55.210 122.388,55.047 121.493,54.975 C120.599,54.904 119.877,54.945 119.329,55.099 C118.945,55.206 118.660,55.406 118.476,55.698 C118.292,55.990 118.247,56.309 118.344,56.654 C118.572,57.469 119.478,58.188 121.063,58.809 C122.647,59.431 123.985,59.590 125.074,59.286 C125.317,59.218 125.505,59.096 125.637,58.919 C125.770,58.743 125.811,58.564 125.760,58.384 C125.585,57.757 124.790,57.333 123.377,57.111 C123.522,57.028 123.654,56.970 123.772,56.937 C124.257,56.801 124.851,56.961 125.553,57.415 C126.254,57.870 126.681,58.368 126.832,58.909 C126.933,59.269 126.871,59.616 126.647,59.949 C126.423,60.282 126.100,60.507 125.677,60.625 C124.258,61.022 122.500,60.537 120.403,59.171 C118.590,58.005 117.540,56.908 117.253,55.881 C117.129,55.434 117.186,55.019 117.425,54.636 C117.664,54.252 118.027,53.992 118.513,53.856 C119.586,53.556 120.814,53.617 122.195,54.038 C123.575,54.459 124.860,55.163 126.048,56.149 C126.699,56.694 127.284,57.322 127.805,58.035 C128.325,58.747 128.662,59.381 128.818,59.938 C128.914,60.283 128.810,60.498 128.504,60.583 ZM125.423,52.111 C125.013,52.042 124.599,51.961 124.180,51.869 L123.949,51.813 L124.034,51.454 C124.132,51.460 124.203,51.463 124.247,51.464 C124.635,51.498 124.897,51.489 125.034,51.437 C125.323,51.326 125.370,51.016 125.175,50.507 C124.997,50.043 124.668,49.703 124.189,49.486 C123.709,49.269 123.241,49.248 122.785,49.422 C122.542,49.516 122.282,49.702 122.006,49.982 L121.042,50.979 C120.716,51.313 120.318,51.570 119.847,51.751 C118.927,52.103 117.864,51.931 116.656,51.235 C115.614,50.631 114.964,49.992 114.705,49.315 C114.556,48.928 114.531,48.572 114.629,48.247 C114.726,47.922 114.927,47.701 115.231,47.584 C115.588,47.448 115.969,47.406 116.373,47.461 C115.748,48.240 115.570,48.980 115.838,49.679 C116.050,50.234 116.428,50.651 116.971,50.931 C117.514,51.211 118.036,51.255 118.538,51.063 C118.804,50.961 119.079,50.768 119.362,50.485 L120.575,49.250 C120.814,49.010 121.109,48.823 121.459,48.689 C122.089,48.447 122.930,48.526 123.980,48.925 C124.678,49.199 125.220,49.529 125.608,49.916 C125.996,50.303 126.326,50.850 126.597,51.557 C126.701,51.831 126.781,52.096 126.837,52.354 L126.572,52.312 L125.423,52.111 ZM119.791,39.723 C119.258,39.693 118.720,39.575 118.177,39.369 C117.678,39.173 117.139,38.866 116.558,38.448 C115.978,38.030 115.592,37.669 115.401,37.366 C115.197,37.042 115.235,36.706 115.516,36.356 C115.656,36.672 115.781,36.915 115.889,37.088 C116.323,37.776 116.921,38.287 117.683,38.620 C118.445,38.952 119.057,38.973 119.519,38.683 C119.849,38.475 119.880,38.157 119.612,37.730 C119.130,36.966 118.170,36.479 116.730,36.270 C115.714,36.121 114.650,36.142 113.538,36.332 C112.427,36.522 111.527,36.834 110.838,37.267 C110.129,37.714 109.961,38.233 110.334,38.825 C110.741,39.473 111.521,39.922 112.674,40.172 C113.827,40.422 115.110,40.425 116.523,40.179 C116.391,40.397 116.249,40.554 116.098,40.649 C115.437,41.065 114.387,41.086 112.950,40.712 C110.848,40.170 109.503,39.430 108.913,38.494 C108.406,37.688 108.610,36.997 109.526,36.420 C110.559,35.770 111.842,35.402 113.375,35.317 C114.908,35.231 116.353,35.449 117.710,35.970 C119.360,36.605 120.479,37.391 121.069,38.327 C121.412,38.871 121.383,39.269 120.984,39.521 C120.722,39.685 120.324,39.753 119.791,39.723 ZM116.567,25.757 C115.419,26.238 113.347,27.001 110.349,28.045 L107.096,29.188 L106.744,29.306 L107.073,29.290 C112.026,29.040 114.948,29.412 115.838,30.406 C116.098,30.698 116.083,30.973 115.792,31.234 C115.580,31.424 115.136,31.624 114.462,31.834 L112.711,32.386 C109.761,33.312 108.119,33.924 107.786,34.222 C107.652,34.342 107.648,34.471 107.773,34.611 C107.919,34.775 108.264,34.952 108.807,35.144 L108.925,35.185 L108.835,35.560 C107.982,35.253 106.962,34.779 105.776,34.137 L105.491,33.983 C106.496,33.203 108.883,32.246 112.652,31.112 C113.238,30.937 113.604,30.784 113.749,30.654 C113.937,30.486 113.969,30.332 113.844,30.192 C113.703,30.035 113.296,29.897 112.622,29.779 C111.949,29.661 111.231,29.604 110.470,29.608 C109.329,29.602 108.079,29.697 106.720,29.893 C105.360,30.088 104.243,30.332 103.369,30.624 C102.934,30.248 102.460,29.963 101.946,29.767 L102.272,29.655 C103.606,29.205 104.878,28.754 106.091,28.302 L109.754,26.940 L113.424,25.605 C115.219,24.937 116.271,24.465 116.580,24.189 C116.792,23.999 116.811,23.807 116.638,23.613 C116.556,23.522 116.351,23.383 116.021,23.198 L115.870,23.121 L116.052,22.794 C116.940,23.298 117.907,23.738 118.953,24.113 L119.208,24.196 C119.098,24.305 119.016,24.384 118.961,24.433 C118.512,24.835 117.714,25.276 116.567,25.757 ZM108.809,22.368 L108.537,22.509 L109.872,23.595 L109.518,23.779 L108.183,22.692 L107.976,22.792 C107.651,22.947 106.725,23.420 105.198,24.213 C104.578,24.537 103.715,24.979 102.609,25.538 C101.316,26.185 100.559,26.645 100.339,26.916 C100.118,27.187 100.146,27.436 100.424,27.662 C100.758,27.934 101.375,28.111 102.274,28.192 L102.225,28.562 C101.610,28.544 100.978,28.438 100.327,28.245 C99.677,28.051 99.194,27.826 98.878,27.569 C98.405,27.184 98.320,26.805 98.623,26.432 C98.839,26.167 99.710,25.638 101.237,24.845 L104.048,23.403 C105.629,22.581 106.554,22.096 106.823,21.947 L107.094,21.806 L105.854,20.797 L106.218,20.621 L106.341,20.721 C106.884,21.163 107.318,21.374 107.642,21.355 C107.967,21.336 108.612,21.064 109.576,20.536 C109.665,20.620 109.726,20.674 109.757,20.700 C110.060,20.947 110.391,21.153 110.749,21.318 C110.531,21.445 110.164,21.645 109.648,21.917 L108.809,22.368 ZM97.211,16.462 C96.751,16.733 96.238,16.933 95.671,17.062 C95.148,17.175 94.529,17.219 93.814,17.192 C93.099,17.166 92.578,17.080 92.251,16.933 C91.902,16.777 91.747,16.476 91.787,16.029 C92.078,16.214 92.317,16.348 92.503,16.431 C93.245,16.764 94.026,16.858 94.845,16.712 C95.664,16.566 96.185,16.245 96.408,15.747 C96.568,15.391 96.418,15.109 95.957,14.903 C95.133,14.533 94.064,14.660 92.750,15.284 C91.821,15.724 90.947,16.331 90.127,17.105 C89.307,17.879 88.731,18.637 88.398,19.380 C88.055,20.145 88.203,20.670 88.842,20.957 C89.540,21.269 90.438,21.211 91.536,20.780 C92.634,20.349 93.704,19.640 94.744,18.653 C94.755,18.908 94.723,19.117 94.650,19.280 C94.331,19.993 93.469,20.592 92.065,21.077 C90.015,21.790 88.485,21.920 87.475,21.468 C86.607,21.078 86.394,20.390 86.836,19.402 C87.336,18.288 88.200,17.271 89.429,16.350 C90.658,15.430 91.981,14.810 93.399,14.492 C95.124,14.106 96.491,14.139 97.501,14.592 C98.088,14.855 98.285,15.202 98.092,15.632 C97.965,15.915 97.672,16.191 97.211,16.462 ZM89.853,12.640 C89.544,12.918 89.223,13.193 88.891,13.463 L88.704,13.610 L88.475,13.320 C88.541,13.247 88.588,13.193 88.615,13.159 C88.883,12.877 89.039,12.665 89.083,12.526 C89.176,12.231 88.962,12.001 88.442,11.838 C87.968,11.689 87.497,11.736 87.029,11.977 C86.561,12.218 86.254,12.571 86.108,13.037 C86.030,13.286 86.015,13.605 86.063,13.996 L86.245,15.371 C86.305,15.833 86.259,16.305 86.108,16.786 C85.813,17.726 85.017,18.453 83.721,18.967 C82.602,19.409 81.697,19.521 81.005,19.304 C80.610,19.180 80.315,18.978 80.120,18.700 C79.926,18.422 79.878,18.127 79.976,17.816 C80.018,17.683 80.084,17.562 80.150,17.439 C79.500,17.613 78.557,17.809 77.284,18.029 L76.937,18.086 C77.399,16.824 78.069,15.512 78.949,14.150 C77.664,15.251 76.489,16.081 75.422,16.639 C74.355,17.198 73.522,17.419 72.923,17.302 C72.396,17.199 72.186,16.872 72.294,16.321 C72.423,15.658 73.180,14.392 74.565,12.523 L75.916,10.698 C76.333,10.132 76.576,9.715 76.645,9.447 C76.713,9.186 76.603,9.028 76.315,8.972 C76.187,8.947 75.954,8.951 75.616,8.985 L75.590,8.607 L75.794,8.584 C76.976,8.475 77.970,8.333 78.775,8.159 C78.650,8.798 78.090,9.778 77.094,11.101 L75.635,13.031 C74.517,14.512 73.922,15.437 73.850,15.804 C73.783,16.148 73.901,16.349 74.205,16.408 C74.979,16.559 76.164,15.951 77.757,14.583 C79.351,13.215 80.717,11.630 81.857,9.830 L82.087,9.477 C82.560,9.519 83.128,9.477 83.791,9.349 C83.023,10.310 82.050,11.683 80.873,13.468 C79.695,15.253 79.067,16.304 78.989,16.620 C78.933,16.867 79.044,17.017 79.324,17.071 C79.539,17.113 79.870,17.095 80.317,17.016 L80.348,17.137 C80.424,17.037 80.494,16.935 80.588,16.844 C80.811,17.819 81.279,18.418 81.994,18.642 C82.561,18.820 83.122,18.783 83.679,18.531 C84.236,18.280 84.595,17.898 84.755,17.385 C84.841,17.113 84.861,16.778 84.815,16.380 L84.600,14.662 C84.560,14.326 84.597,13.979 84.709,13.622 C84.911,12.977 85.495,12.367 86.460,11.792 C87.107,11.415 87.703,11.195 88.248,11.131 C88.792,11.068 89.426,11.149 90.148,11.376 C90.427,11.464 90.685,11.566 90.922,11.683 L90.724,11.864 L89.853,12.640 ZM72.783,8.264 C70.309,8.053 68.099,8.832 66.151,10.601 C64.716,11.899 63.940,13.242 63.821,14.628 C63.766,15.277 63.977,15.622 64.456,15.663 C64.861,15.697 65.475,15.397 66.297,14.760 C67.119,14.124 67.870,13.370 68.549,12.497 C69.486,11.286 70.163,10.005 70.581,8.652 C70.911,8.893 71.053,9.297 71.004,9.864 C70.937,10.651 70.462,11.521 69.580,12.475 C69.972,12.476 70.464,12.403 71.057,12.258 L70.942,12.456 C70.023,14.117 69.552,15.094 69.527,15.386 C69.507,15.621 69.607,15.740 69.827,15.742 C70.031,15.744 70.406,15.612 70.951,15.349 L71.143,15.683 C70.237,16.251 69.030,16.654 67.523,16.893 C67.634,16.077 68.237,14.708 69.333,12.784 C68.182,13.927 67.018,14.857 65.842,15.573 C64.665,16.289 63.753,16.619 63.104,16.564 C62.537,16.515 62.284,16.130 62.345,15.408 C62.450,14.184 63.111,12.907 64.327,11.578 C65.544,10.248 67.018,9.197 68.751,8.422 C70.705,7.535 72.607,7.171 74.455,7.329 C74.715,7.352 74.836,7.460 74.820,7.655 C74.806,7.817 74.658,8.115 74.376,8.548 C73.832,8.403 73.301,8.309 72.783,8.264 ZM62.056,9.489 L62.157,9.283 C62.451,8.669 62.600,8.244 62.604,8.008 C62.608,7.715 62.301,7.564 61.683,7.555 C60.731,7.540 59.903,7.930 59.199,8.725 C58.528,9.480 57.950,10.385 57.466,11.440 C56.982,12.495 56.735,13.384 56.724,14.108 C56.710,15.003 57.114,15.457 57.936,15.470 C58.636,15.480 59.360,15.190 60.110,14.599 C60.860,14.009 61.494,13.225 62.014,12.248 L62.341,11.642 C62.357,11.610 62.395,11.542 62.454,11.437 C62.541,11.593 62.583,11.752 62.581,11.915 C62.570,12.615 62.036,13.461 60.979,14.454 C59.419,15.912 58.004,16.630 56.734,16.611 C55.652,16.595 55.120,15.976 55.139,14.755 C55.155,13.706 55.526,12.580 56.253,11.379 C56.979,10.177 57.936,9.101 59.122,8.150 C60.712,6.881 62.256,6.257 63.753,6.280 C63.851,6.282 64.017,6.292 64.253,6.312 L62.483,9.496 L62.056,9.489 ZM54.776,9.219 C54.353,9.548 53.814,9.856 53.158,10.142 C52.502,10.428 51.996,10.576 51.638,10.586 C51.255,10.596 50.985,10.392 50.827,9.973 C51.170,10.013 51.444,10.030 51.647,10.024 C52.460,10.002 53.204,9.748 53.879,9.262 C54.554,8.775 54.884,8.260 54.870,7.715 C54.859,7.324 54.601,7.136 54.097,7.149 C53.194,7.174 52.286,7.752 51.372,8.884 C50.726,9.683 50.201,10.609 49.798,11.662 C49.395,12.715 49.205,13.648 49.227,14.461 C49.250,15.299 49.611,15.709 50.310,15.690 C51.075,15.669 51.859,15.227 52.662,14.362 C53.465,13.498 54.121,12.396 54.630,11.055 C54.750,11.280 54.813,11.481 54.817,11.660 C54.839,12.441 54.322,13.355 53.267,14.401 C51.729,15.932 50.407,16.713 49.301,16.743 C48.349,16.769 47.859,16.241 47.829,15.159 C47.796,13.938 48.134,12.647 48.842,11.285 C49.550,9.922 50.474,8.790 51.614,7.888 C53.001,6.792 54.247,6.229 55.354,6.199 C55.996,6.182 56.324,6.409 56.337,6.881 C56.345,7.190 56.201,7.567 55.903,8.010 C55.606,8.454 55.230,8.857 54.776,9.219 ZM44.651,14.231 C42.452,16.077 40.284,17.058 38.147,17.173 L38.297,16.774 C39.626,13.165 40.772,9.909 41.736,7.004 C42.700,4.100 43.173,2.477 43.155,2.136 C43.141,1.892 42.989,1.778 42.696,1.794 C42.517,1.803 42.233,1.892 41.843,2.060 L41.688,1.689 C42.724,1.250 43.850,0.684 45.068,-0.009 C45.037,1.215 44.092,4.412 42.236,9.581 L42.044,10.093 C42.878,9.094 43.799,8.262 44.806,7.597 C45.813,6.931 46.695,6.578 47.451,6.537 C48.198,6.497 48.594,6.871 48.636,7.659 C48.684,8.553 48.334,9.615 47.585,10.845 C46.837,12.075 45.859,13.204 44.651,14.231 ZM45.982,7.631 C45.055,7.681 43.981,8.536 42.758,10.195 C41.536,11.854 40.586,13.741 39.910,15.856 C40.131,15.877 40.298,15.884 40.412,15.878 C42.208,15.781 43.764,14.788 45.080,12.900 C45.610,12.138 46.041,11.332 46.374,10.483 C46.707,9.633 46.860,8.953 46.832,8.441 C46.802,7.872 46.518,7.602 45.982,7.631 ZM41.807,107.572 C42.716,107.857 43.008,108.516 42.684,109.549 C42.319,110.713 41.580,111.825 40.468,112.883 C39.355,113.942 38.114,114.712 36.742,115.195 C35.075,115.780 33.713,115.907 32.657,115.576 C32.043,115.384 31.807,115.062 31.948,114.612 C32.041,114.317 32.300,114.008 32.725,113.685 C33.151,113.362 33.637,113.103 34.184,112.908 C34.691,112.735 35.301,112.619 36.014,112.561 C36.728,112.503 37.255,112.528 37.596,112.635 C37.962,112.750 38.151,113.031 38.164,113.478 C37.852,113.329 37.599,113.225 37.405,113.164 C36.629,112.920 35.842,112.919 35.046,113.159 C34.250,113.400 33.770,113.780 33.607,114.301 C33.490,114.673 33.672,114.935 34.154,115.086 C35.016,115.357 36.063,115.105 37.295,114.332 C38.165,113.786 38.962,113.081 39.685,112.216 C40.409,111.351 40.892,110.530 41.136,109.754 C41.387,108.954 41.178,108.449 40.510,108.240 C39.781,108.011 38.896,108.175 37.855,108.731 C36.815,109.288 35.836,110.117 34.919,111.220 C34.878,110.968 34.885,110.757 34.938,110.586 C35.172,109.841 35.958,109.145 37.295,108.498 C39.247,107.549 40.751,107.241 41.807,107.572 ZM36.261,108.216 C36.114,107.227 35.693,106.593 34.999,106.314 C34.447,106.093 33.884,106.086 33.310,106.294 C32.735,106.502 32.348,106.855 32.148,107.354 C32.042,107.618 31.996,107.950 32.011,108.351 L32.092,110.080 C32.105,110.419 32.042,110.762 31.903,111.109 C31.651,111.736 31.022,112.299 30.015,112.798 C29.340,113.123 28.729,113.297 28.181,113.318 C27.633,113.339 27.008,113.209 26.306,112.927 C26.034,112.818 25.785,112.696 25.558,112.561 L25.769,112.396 L26.698,111.690 C27.027,111.436 27.368,111.187 27.721,110.943 L27.918,110.812 L28.124,111.118 C28.053,111.186 28.002,111.236 27.972,111.268 C27.683,111.528 27.511,111.727 27.457,111.863 C27.341,112.150 27.537,112.395 28.043,112.598 C28.504,112.783 28.977,112.774 29.462,112.569 C29.947,112.365 30.281,112.037 30.463,111.584 C30.560,111.342 30.600,111.025 30.582,110.632 L30.506,109.247 C30.483,108.781 30.565,108.314 30.753,107.846 C31.120,106.932 31.969,106.269 33.301,105.857 C34.452,105.503 35.363,105.461 36.035,105.731 C36.420,105.886 36.699,106.109 36.871,106.402 C37.043,106.694 37.068,106.992 36.947,107.294 C36.804,107.649 36.576,107.956 36.261,108.216 ZM28.760,20.013 C28.200,20.255 27.824,20.157 27.633,19.716 C27.497,19.402 27.429,18.386 27.428,16.665 L27.442,13.506 C27.441,11.723 27.436,10.679 27.427,10.372 L27.427,10.066 L25.960,10.702 L25.971,10.298 L26.117,10.235 C26.759,9.957 27.146,9.669 27.279,9.372 C27.412,9.075 27.467,8.377 27.443,7.279 C27.558,7.238 27.634,7.209 27.672,7.193 C28.030,7.037 28.365,6.839 28.677,6.597 C28.689,6.849 28.697,7.267 28.702,7.850 L28.716,8.802 L28.715,9.108 L30.294,8.424 L30.294,8.823 L28.715,9.508 L28.708,9.737 C28.696,10.097 28.690,11.137 28.691,12.858 C28.693,13.558 28.687,14.527 28.674,15.765 C28.654,17.211 28.713,18.095 28.852,18.416 C28.992,18.737 29.225,18.826 29.554,18.684 C29.950,18.512 30.391,18.046 30.877,17.285 L31.182,17.499 C30.883,18.036 30.498,18.549 30.027,19.038 C29.555,19.526 29.133,19.851 28.760,20.013 ZM23.542,23.521 C23.194,23.748 22.852,23.849 22.513,23.822 C22.175,23.796 21.917,23.646 21.738,23.374 C21.645,23.232 21.575,23.077 21.517,22.918 C21.315,23.559 20.929,24.527 20.352,25.834 L20.208,26.154 C19.413,25.072 18.691,23.787 18.044,22.300 C18.250,23.979 18.290,25.418 18.165,26.615 C18.039,27.813 17.762,28.629 17.333,29.063 C16.956,29.445 16.567,29.439 16.168,29.044 C15.688,28.570 15.052,27.238 14.262,25.051 L13.490,22.914 C13.250,22.254 13.037,21.821 12.852,21.615 C12.672,21.415 12.480,21.419 12.274,21.627 C12.182,21.720 12.057,21.916 11.897,22.216 L11.568,22.028 L11.662,21.846 C12.226,20.802 12.658,19.895 12.958,19.128 C13.421,19.586 13.928,20.596 14.478,22.158 L15.277,24.440 C15.892,26.192 16.333,27.199 16.599,27.462 C16.848,27.708 17.081,27.721 17.298,27.501 C17.853,26.940 18.002,25.617 17.745,23.532 C17.488,21.448 16.925,19.433 16.056,17.487 L15.889,17.099 C16.186,16.729 16.465,16.233 16.726,15.610 C17.102,16.782 17.706,18.352 18.541,20.321 C19.376,22.289 19.903,23.394 20.123,23.634 C20.297,23.817 20.484,23.808 20.684,23.605 C20.839,23.449 21.007,23.163 21.188,22.747 L21.488,22.850 C21.429,22.672 21.391,22.484 21.374,22.284 C22.269,22.729 23.030,22.747 23.656,22.336 C24.153,22.011 24.480,21.553 24.639,20.963 C24.797,20.373 24.729,19.853 24.434,19.404 C24.278,19.166 24.032,18.938 23.695,18.721 L22.229,17.798 C21.944,17.616 21.699,17.368 21.494,17.054 C21.124,16.489 21.022,15.651 21.189,14.540 C21.308,13.800 21.515,13.200 21.811,12.738 C22.107,12.277 22.571,11.839 23.204,11.424 C23.450,11.263 23.692,11.129 23.932,11.020 L23.947,11.288 L23.995,12.453 C24.015,12.868 24.024,13.291 24.022,13.719 L24.017,13.956 L23.648,13.950 C23.633,13.853 23.621,13.783 23.613,13.740 C23.564,13.353 23.499,13.099 23.419,12.976 C23.250,12.718 22.937,12.738 22.481,13.037 C22.065,13.309 21.803,13.702 21.693,14.217 C21.582,14.732 21.661,15.194 21.929,15.602 C22.071,15.820 22.309,16.034 22.641,16.244 L23.821,16.975 C24.216,17.222 24.552,17.556 24.828,17.978 C25.368,18.802 25.426,19.878 25.002,21.206 C24.634,22.352 24.147,23.124 23.542,23.521 ZM15.143,45.873 C14.585,47.050 13.819,48.096 12.844,49.011 C11.870,49.927 10.837,50.577 9.745,50.960 C8.105,51.533 6.439,51.418 4.748,50.616 C3.078,49.825 1.994,48.512 1.496,46.676 C0.997,44.841 1.209,42.949 2.133,41.001 C3.601,37.905 6.458,35.139 10.702,32.702 L10.938,34.314 C9.174,35.279 7.499,36.529 5.911,38.063 C4.323,39.598 3.203,41.053 2.551,42.428 C1.833,43.943 1.648,45.386 1.997,46.759 C2.346,48.131 3.149,49.115 4.406,49.712 C5.223,50.099 6.128,50.283 7.124,50.264 C8.119,50.245 9.074,50.020 9.990,49.590 C10.776,49.224 11.569,48.605 12.370,47.733 C13.171,46.861 13.812,45.917 14.293,44.902 C15.886,41.542 15.612,37.877 13.469,33.906 C12.640,32.387 11.530,30.819 10.141,29.200 C8.751,27.582 7.381,26.269 6.031,25.259 L3.785,23.586 L2.426,22.577 C2.341,22.510 2.210,22.416 2.033,22.296 C1.910,22.688 1.777,23.035 1.634,23.336 L1.125,24.351 C0.965,24.690 0.856,25.034 0.797,25.385 C0.707,25.936 0.783,26.450 1.026,26.925 C1.269,27.401 1.633,27.754 2.119,27.984 C2.582,28.203 3.072,28.290 3.590,28.242 C4.108,28.195 4.807,28.002 5.688,27.663 C6.548,27.333 7.217,27.280 7.694,27.507 C8.334,27.810 8.852,28.337 9.248,29.088 C9.644,29.839 9.731,30.450 9.508,30.920 C9.330,31.295 9.051,31.537 8.671,31.645 C8.291,31.753 7.884,31.704 7.450,31.498 C7.399,31.474 7.318,31.426 7.207,31.356 C8.110,31.199 8.673,30.885 8.896,30.414 C9.224,29.723 9.028,29.206 8.307,28.865 C7.873,28.659 7.155,28.760 6.151,29.166 C4.913,29.669 3.765,29.669 2.706,29.167 C1.544,28.616 0.742,27.716 0.299,26.465 C-0.144,25.215 -0.090,24.009 0.461,22.847 L0.964,21.843 L1.431,20.916 C1.539,20.688 1.622,20.502 1.681,20.359 L2.036,20.608 C4.453,22.367 6.418,23.997 7.931,25.498 C9.444,26.999 10.806,28.676 12.017,30.529 C16.043,36.663 17.085,41.777 15.143,45.873 ZM16.626,96.002 C16.745,95.891 16.832,95.811 16.888,95.764 C17.464,95.273 18.219,94.926 19.153,94.723 C20.087,94.521 21.032,94.498 21.990,94.655 L21.680,94.743 C20.222,95.140 19.243,95.553 18.741,95.981 L16.626,96.002 ZM12.184,102.073 C12.575,101.930 12.975,101.795 13.385,101.668 L13.613,101.602 L13.717,101.956 C13.629,102.000 13.565,102.032 13.527,102.053 C13.173,102.215 12.949,102.353 12.856,102.466 C12.660,102.705 12.773,102.998 13.194,103.344 C13.578,103.659 14.032,103.792 14.557,103.743 C15.081,103.694 15.498,103.481 15.807,103.103 C15.973,102.902 16.106,102.611 16.207,102.231 L16.552,100.888 C16.669,100.436 16.888,100.016 17.208,99.626 C17.833,98.865 18.842,98.488 20.236,98.495 C21.440,98.503 22.322,98.737 22.882,99.197 C23.202,99.460 23.401,99.757 23.477,100.088 C23.553,100.418 23.488,100.710 23.281,100.961 C23.187,101.076 23.074,101.170 22.960,101.264 C23.633,101.289 24.640,101.395 26.006,101.587 L26.353,101.639 C25.527,102.699 24.487,103.742 23.233,104.770 C24.793,104.115 26.166,103.685 27.352,103.480 C28.539,103.275 29.400,103.319 29.934,103.614 C30.404,103.873 30.504,104.249 30.233,104.741 C29.907,105.332 28.798,106.306 26.908,107.661 L25.062,108.985 C24.492,109.396 24.133,109.718 23.985,109.952 C23.841,110.180 23.898,110.364 24.154,110.506 C24.268,110.568 24.491,110.636 24.824,110.707 L24.732,111.075 L24.532,111.034 C23.373,110.776 22.384,110.607 21.564,110.527 C21.878,109.956 22.712,109.194 24.065,108.240 L26.045,106.850 C27.563,105.782 28.412,105.084 28.593,104.757 C28.762,104.450 28.711,104.222 28.440,104.073 C27.749,103.692 26.436,103.908 24.500,104.723 C22.564,105.537 20.778,106.627 19.142,107.992 L18.814,108.258 C18.377,108.073 17.824,107.939 17.153,107.857 C18.178,107.177 19.525,106.168 21.193,104.830 C22.860,103.491 23.780,102.683 23.951,102.406 C24.080,102.189 24.020,102.012 23.770,101.874 C23.578,101.768 23.257,101.684 22.808,101.622 L22.822,101.376 C22.677,101.475 22.523,101.564 22.350,101.634 C22.507,100.647 22.296,99.916 21.717,99.442 C21.258,99.065 20.724,98.889 20.113,98.915 C19.503,98.940 19.027,99.160 18.686,99.576 C18.506,99.796 18.362,100.099 18.255,100.485 L17.813,102.160 C17.724,102.486 17.561,102.794 17.323,103.084 C16.895,103.606 16.126,103.954 15.015,104.127 C14.274,104.235 13.639,104.216 13.110,104.072 C12.581,103.927 12.024,103.615 11.439,103.135 C11.213,102.949 11.012,102.758 10.836,102.561 L11.087,102.467 L12.184,102.073 ZM41.295,117.258 C42.339,115.400 43.594,113.641 45.058,111.981 C49.899,106.468 54.552,104.102 59.017,104.885 C60.299,105.109 61.512,105.570 62.654,106.266 C63.796,106.962 64.697,107.785 65.356,108.735 C66.345,110.164 66.678,111.800 66.355,113.644 C66.036,115.463 65.059,116.858 63.422,117.827 C61.786,118.796 59.906,119.094 57.782,118.722 C54.407,118.131 50.981,116.113 47.503,112.670 L48.993,112.014 C50.393,113.457 52.043,114.740 53.945,115.862 C55.847,116.985 57.548,117.677 59.047,117.940 C60.698,118.229 62.138,118.023 63.368,117.322 C64.599,116.620 65.334,115.584 65.574,114.213 C65.730,113.323 65.666,112.401 65.383,111.447 C65.100,110.493 64.629,109.632 63.971,108.863 C63.409,108.203 62.601,107.603 61.547,107.063 C60.494,106.523 59.413,106.156 58.307,105.963 C54.644,105.321 51.184,106.561 47.927,109.683 C46.683,110.886 45.466,112.373 44.276,114.143 C43.086,115.913 42.184,117.583 41.570,119.153 L40.555,121.764 L39.944,123.342 C39.902,123.442 39.846,123.593 39.778,123.796 C40.188,123.810 40.558,123.846 40.887,123.904 L42.001,124.124 C42.369,124.188 42.730,124.202 43.084,124.165 C43.640,124.105 44.115,123.895 44.508,123.534 C44.902,123.174 45.145,122.729 45.238,122.200 C45.326,121.695 45.279,121.199 45.096,120.713 C44.912,120.226 44.540,119.603 43.979,118.844 C43.432,118.104 43.203,117.473 43.295,116.952 C43.417,116.254 43.787,115.615 44.405,115.033 C45.024,114.452 45.589,114.206 46.102,114.296 C46.511,114.368 46.818,114.572 47.023,114.910 C47.229,115.247 47.290,115.652 47.207,116.125 C47.197,116.181 47.173,116.272 47.134,116.398 C46.743,115.569 46.290,115.110 45.777,115.020 C45.024,114.888 44.578,115.214 44.440,116.000 C44.358,116.473 44.646,117.139 45.305,117.998 C46.119,119.058 46.425,120.165 46.222,121.319 C46.000,122.586 45.346,123.599 44.258,124.358 C43.171,125.118 41.994,125.387 40.728,125.165 L39.626,124.947 L38.608,124.744 C38.360,124.700 38.158,124.669 38.005,124.650 L38.150,124.242 C39.203,121.444 40.251,119.116 41.295,117.258 ZM72.258,119.929 C72.700,119.626 73.256,119.351 73.928,119.104 C74.600,118.857 75.115,118.740 75.472,118.752 C75.855,118.764 76.112,118.984 76.245,119.412 C75.905,119.352 75.633,119.319 75.430,119.312 C74.616,119.285 73.858,119.494 73.156,119.940 C72.453,120.385 72.093,120.880 72.075,121.425 C72.062,121.815 72.308,122.019 72.812,122.035 C73.715,122.065 74.656,121.542 75.636,120.467 C76.329,119.708 76.907,118.815 77.373,117.788 C77.838,116.761 78.084,115.841 78.110,115.028 C78.138,114.190 77.802,113.759 77.103,113.736 C76.338,113.711 75.529,114.106 74.676,114.921 C73.823,115.736 73.102,116.797 72.513,118.105 C72.407,117.873 72.357,117.668 72.363,117.489 C72.388,116.708 72.959,115.827 74.074,114.846 C75.701,113.410 77.067,112.709 78.173,112.746 C79.125,112.777 79.583,113.333 79.547,114.415 C79.507,115.635 79.093,116.904 78.305,118.222 C77.517,119.539 76.527,120.614 75.335,121.446 C73.885,122.457 72.607,122.945 71.501,122.908 C70.859,122.887 70.545,122.641 70.560,122.169 C70.570,121.860 70.737,121.493 71.061,121.068 C71.384,120.643 71.783,120.263 72.258,119.929 ZM82.182,114.795 C82.170,114.576 82.058,114.472 81.847,114.484 C81.693,114.493 81.430,114.617 81.061,114.858 L80.848,114.552 C81.675,113.886 82.671,113.326 83.835,112.870 C83.804,114.648 83.108,117.156 81.748,120.395 L81.436,121.170 C81.378,121.295 81.351,121.399 81.356,121.480 C81.367,121.675 81.457,121.768 81.628,121.758 C81.977,121.739 82.639,121.180 83.613,120.083 C84.319,119.294 84.971,118.300 85.568,117.101 C86.166,115.902 86.637,114.662 86.981,113.379 C87.454,113.231 88.014,112.971 88.662,112.601 L88.547,112.950 L87.915,114.782 C87.453,116.136 87.038,117.472 86.671,118.788 C86.304,120.104 86.128,120.901 86.144,121.177 C86.157,121.413 86.273,121.524 86.492,121.512 C86.769,121.497 87.210,121.144 87.815,120.454 C88.421,119.764 88.976,118.982 89.482,118.106 C90.358,116.574 91.100,114.890 91.707,113.055 C91.811,113.017 91.871,112.993 91.886,112.984 L92.519,112.716 C92.775,112.613 93.037,112.496 93.307,112.367 C93.135,112.792 92.803,113.707 92.310,115.112 L91.487,117.456 C90.869,119.235 90.560,120.340 90.559,120.772 C90.559,121.066 90.685,121.205 90.937,121.191 C91.100,121.182 91.339,121.096 91.656,120.931 L91.824,121.313 C91.132,121.629 90.250,122.163 89.175,122.916 L88.916,123.101 C88.881,122.915 88.860,122.758 88.853,122.628 C88.814,121.937 89.161,120.540 89.891,118.438 C87.793,121.448 86.122,122.988 84.879,123.057 C84.513,123.077 84.320,122.892 84.298,122.502 C84.265,121.917 84.603,120.594 85.312,118.534 C84.446,119.812 83.491,120.925 82.447,121.872 C81.404,122.818 80.589,123.308 80.004,123.340 C79.663,123.359 79.483,123.198 79.464,122.857 C79.451,122.621 79.717,121.828 80.261,120.477 C81.570,117.201 82.210,115.307 82.182,114.795 ZM99.395,109.987 C99.821,109.804 100.240,109.805 100.652,109.991 C101.064,110.177 101.370,110.502 101.569,110.965 C102.010,111.989 102.114,113.214 101.880,114.639 C101.647,116.063 101.121,117.430 100.302,118.739 C99.849,119.457 99.304,120.121 98.667,120.731 C98.031,121.342 97.447,121.761 96.916,121.989 C96.587,122.131 96.360,122.056 96.235,121.764 C96.186,121.652 96.156,121.448 96.144,121.152 C96.556,121.019 96.893,120.896 97.155,120.784 C99.121,119.938 100.303,118.535 100.700,116.575 C100.854,115.800 100.906,114.964 100.858,114.069 C100.809,113.173 100.672,112.463 100.447,111.940 C100.289,111.573 100.053,111.318 99.739,111.174 C99.425,111.031 99.103,111.029 98.774,111.171 C97.997,111.505 97.405,112.499 97.000,114.153 C96.595,115.806 96.616,117.153 97.063,118.192 C97.163,118.424 97.309,118.593 97.502,118.701 C97.694,118.809 97.876,118.826 98.048,118.752 C98.646,118.494 98.961,117.650 98.992,116.220 C99.094,116.353 99.169,116.476 99.217,116.588 C99.417,117.051 99.338,117.661 98.981,118.417 C98.624,119.173 98.187,119.662 97.672,119.884 C97.328,120.032 96.976,120.017 96.616,119.840 C96.256,119.662 95.989,119.372 95.816,118.968 C95.234,117.615 95.480,115.808 96.554,113.548 C97.468,111.595 98.415,110.408 99.395,109.987 ZM105.579,105.787 C106.466,105.166 107.259,105.356 107.959,106.356 C108.561,107.216 108.920,108.345 109.036,109.745 C109.151,111.144 109.007,112.576 108.603,114.042 C108.058,116.003 107.173,117.413 105.946,118.272 C105.866,118.328 105.725,118.417 105.522,118.539 L105.091,114.922 L105.441,114.677 L105.480,114.903 C105.601,115.572 105.730,116.004 105.865,116.198 C106.033,116.438 106.370,116.380 106.877,116.025 C107.657,115.479 108.099,114.678 108.204,113.621 C108.305,112.616 108.242,111.545 108.016,110.406 C107.791,109.268 107.470,108.402 107.054,107.809 C106.541,107.076 105.948,106.945 105.274,107.416 C104.701,107.818 104.284,108.477 104.023,109.396 C103.762,110.314 103.707,111.321 103.858,112.417 L103.948,113.099 C103.954,113.135 103.963,113.212 103.977,113.332 C103.815,113.256 103.688,113.152 103.594,113.019 C103.193,112.446 103.129,111.447 103.404,110.023 C103.814,107.927 104.539,106.515 105.579,105.787 ZM115.297,95.462 C115.623,95.367 115.917,95.416 116.180,95.608 C116.489,95.833 116.730,96.130 116.905,96.499 C115.910,96.399 115.193,96.650 114.752,97.255 C114.402,97.735 114.257,98.279 114.317,98.887 C114.377,99.495 114.624,99.958 115.058,100.274 C115.288,100.442 115.599,100.568 115.991,100.652 L117.688,100.998 C118.019,101.069 118.336,101.214 118.638,101.435 C119.184,101.833 119.575,102.581 119.811,103.680 C119.961,104.414 119.979,105.049 119.865,105.585 C119.751,106.121 119.471,106.695 119.025,107.307 C118.852,107.543 118.672,107.755 118.486,107.941 L118.378,107.696 L117.922,106.623 C117.757,106.241 117.600,105.849 117.449,105.448 L117.371,105.224 L117.718,105.100 C117.766,105.185 117.802,105.247 117.826,105.284 C118.008,105.628 118.158,105.844 118.276,105.930 C118.526,106.112 118.812,105.983 119.133,105.542 C119.425,105.141 119.532,104.680 119.454,104.160 C119.375,103.639 119.139,103.235 118.744,102.947 C118.534,102.794 118.236,102.677 117.851,102.598 L116.490,102.330 C116.033,102.239 115.600,102.044 115.193,101.747 C114.397,101.167 113.963,100.180 113.891,98.788 C113.831,97.586 114.014,96.692 114.441,96.107 C114.685,95.772 114.971,95.557 115.297,95.462 ZM119.756,96.777 C118.496,95.357 117.733,94.587 117.466,94.466 C117.251,94.368 117.106,94.423 117.030,94.630 C116.961,94.822 116.959,95.219 117.026,95.821 L116.646,95.890 C116.413,94.846 116.436,93.574 116.714,92.074 C117.446,92.450 118.536,93.476 119.984,95.151 C119.290,93.684 118.802,92.277 118.520,90.929 C118.237,89.581 118.231,88.611 118.499,88.018 C118.735,87.499 119.182,87.389 119.842,87.688 C120.961,88.196 121.944,89.245 122.791,90.835 C123.638,92.425 124.138,94.166 124.290,96.058 C124.473,98.196 124.182,100.110 123.416,101.800 C123.308,102.037 123.166,102.116 122.988,102.035 C122.839,101.968 122.608,101.729 122.294,101.318 C122.611,100.855 122.878,100.386 123.093,99.911 C124.118,97.651 124.121,95.307 123.104,92.880 C122.359,91.095 121.352,89.915 120.085,89.340 C119.492,89.071 119.096,89.155 118.898,89.593 C118.730,89.963 118.809,90.642 119.134,91.630 C119.459,92.617 119.920,93.576 120.516,94.508 C121.344,95.795 122.327,96.861 123.462,97.707 C123.125,97.938 122.697,97.936 122.178,97.701 C121.459,97.375 120.798,96.637 120.193,95.487 C120.061,95.856 119.965,96.344 119.904,96.951 L119.756,96.777 Z" class="cls-1"/>
  </g>
</svg>
